<?xml version="1.0" standalone="no"?>
<!DOCTYPE svg PUBLIC "-//W3C//DTD SVG 1.1//EN" "http://www.w3.org/Graphics/SVG/1.1/DTD/svg11.dtd" >
<svg>
<metadata>
Created by FontForge 20090622 at Thu Apr 21 11:23:01 2016
 By deploy user
Copyright 1991, Atech Software, Carlsbad CA 
</metadata>
<defs>
<font id="Condens-BoldItalic" horiz-adv-x="184" >
  <font-face 
    font-family="Condens"
    font-weight="700"
    font-style="italic"
    font-stretch="normal"
    units-per-em="1000"
    panose-1="0 0 0 0 0 0 0 0 0 0"
    ascent="800"
    descent="-200"
    x-height="571"
    cap-height="697"
    bbox="-61 -148 615.032 788"
    underline-thickness="50"
    underline-position="-55"
    unicode-range="U+0020-U+2219"
  />
<missing-glyph 
d="M148 300h-35q-13 8 -19 20.5t-6 25.5v3.5t1 3.5q0 2 0.5 3.5t0.5 3.5q0 1 0.5 2.5t0.5 3.5q5 16 17 30.5t30 23.5h10h70q14 -7 20 -19.5t6 -26.5q0 -2 -0.5 -4t-0.5 -3q0 -2 -0.5 -3.5t-0.5 -3.5q0 -1 -0.5 -2.5t-0.5 -3.5q-5 -16 -17 -30.5t-31 -23.5h-10h-35v0z" />
    <glyph glyph-name=".notdef" 
d="M148 300h-35q-13 8 -19 20.5t-6 25.5v3.5t1 3.5q0 2 0.5 3.5t0.5 3.5q0 1 0.5 2.5t0.5 3.5q5 16 17 30.5t30 23.5h10h70q14 -7 20 -19.5t6 -26.5q0 -2 -0.5 -4t-0.5 -3q0 -2 -0.5 -3.5t-0.5 -3.5q0 -1 -0.5 -2.5t-0.5 -3.5q-5 -16 -17 -30.5t-31 -23.5h-10h-35v0z" />
    <glyph glyph-name="glyph1" horiz-adv-x="0" 
 />
    <glyph glyph-name="glyph2" horiz-adv-x="136" 
 />
    <glyph glyph-name="glyph3" unicode=" " horiz-adv-x="146" 
 />
    <glyph glyph-name="glyph4" unicode="!" horiz-adv-x="141" 
d="M110 0h-90l25 120h10h90l-25 -120h-10v0zM170 703h101l-1 -7l-128 -524h-10h-63l90 524l1 7h10v0z" />
    <glyph glyph-name="glyph5" unicode="&#x22;" horiz-adv-x="217" 
d="M241 703l-31 -149q-1 -3 -2 -7t-2 -7q-9 -23 -30 -42t-48 -20h-10l11 51q13 4 18.5 10.5t9.5 22.5q1 4 2.5 9.5t2.5 11.5l-19 12l22 108h10h66v0zM276 703h67l-31 -149q-1 -3 -2 -7t-2 -7q-10 -23 -31 -42t-48 -20h-10l11 51q14 4 19.5 11t10.5 23q1 5 2 9.5t2 10.5
l-20 12l22 108h10v0z" />
    <glyph glyph-name="glyph6" unicode="#" horiz-adv-x="315" 
d="M325 259h23l-16 -74h-23l-38 -185h-10h-90l38 185h-31l-38 -185h-10h-90l38 185h-23l16 74h23l42 202h-23l15 74h23l35 168h10h90l-35 -168h31l35 168h10h90l-35 -168h23l-15 -74h-23l-42 -202v0zM267 461h-31l-42 -202h31l42 202v0z" />
    <glyph glyph-name="glyph7" unicode="$" horiz-adv-x="271" 
d="M170 0l-9 -44h-10h-60l9 44q-28 5 -46 18t-18 35v2.5v2.5t0.5 2.5t0.5 2.5l47 225h10h91l-41 -198v-4q0 -4 2 -7t5 -5q5 2 9.5 6t5.5 10l44 212v3q0 1 -0.5 2.5t-0.5 3.5q-5 8 -19.5 16.5l-33.5 20.5q-3 2 -6 4.5t-7 4.5q-12 9 -22 22t-10 33q0 3 0.5 6.5t1.5 7.5l42 203
q6 29 32 46t58 23l9 45h10h60l-9 -45q27 -5 46 -19.5t18 -38.5v-5t-1 -6l-36 -170h-10h-90l32 153v4q0 4 -2.5 6.5t-6.5 3.5q-4 -1 -7.5 -4.5t-5.5 -9.5l-33 -161q0 -2 -0.5 -3.5t-0.5 -3.5q-1 -2 -1 -3.5v-3.5q0 -9 9.5 -19.5t37.5 -23.5q18 -11 29 -20.5t16 -18.5
q3 -6 4.5 -11.5t1.5 -11.5v-3.5t-1 -3.5q0 -2 -0.5 -3.5t-0.5 -3.5l-53 -255q-5 -27 -31.5 -42.5t-58.5 -20.5v0z" />
    <glyph glyph-name="glyph8" unicode="%" horiz-adv-x="446" 
d="M213 97l-52 -97h-10h-100l236 435l-18.5 -4t-19.5 -3q-5 -1 -9.5 -1h-9.5h-10q-38 0 -67 15t-29 43v4.5t1 5.5l28 137q7 31 39.5 48t70.5 19q4 1 7.5 1h7.5h10q38 0 67 -14t29 -43v-5t-1 -6l-5 -28l50 93h10h100l-240 -441q7 2 14.5 3.5t15.5 2.5t15.5 1.5t14.5 0.5h10
q38 0 67.5 -14.5t29.5 -42.5v-2.5v-2.5t-0.5 -2.5t-0.5 -2.5l-28 -136q-7 -32 -40 -48t-72 -19h-6h-6l-10 -1q-38 1 -68 15t-29 43v4.5t1 5.5l7 36v0zM329 163l-14 -68q-1 -3 -1 -5.5v-4.5q0 -7 2.5 -12t6.5 -7q1 0 2 0.5t1 1.5q6 3 10.5 10t6.5 17l14 68q1 3 1 5.5v4.5
q0 7 -2.5 12t-6.5 6q-1 0 -2 -0.5t-1 -1.5q-6 -3 -10.5 -9.5t-6.5 -16.5v0zM276 598q1 3 1 5.5v4.5q0 7 -2.5 12t-6.5 6q-1 0 -2 -0.5t-1 -1.5q-6 -3 -10.5 -9.5t-6.5 -16.5l-14 -69q-1 -3 -1 -5.5v-4.5q0 -7 2.5 -11.5t6.5 -6.5q1 0 2 0.5t1 1.5q6 3 10.5 9.5t6.5 16.5
l14 69v0z" />
    <glyph glyph-name="glyph9" unicode="&#x26;" horiz-adv-x="283" 
d="M128 495l28 136q7 32 37 50.5t64 22.5q5 0 10 0.5t10 0.5h10q36 0 64.5 -15.5t27.5 -47.5v-6t-1 -6l-42 -203q-5 -24 -20 -39t-32 -26q-6 -3 -12 -6.5t-12 -6.5q-26 -12 -44.5 -21.5t-25.5 -18.5q-1 -2 -2 -3t-1 -3l-44 -212v-5q0 -4 2 -7t5 -4q1 0 1.5 0.5t1.5 0.5
q4 2 7.5 5.5t4.5 9.5l39 189l59 31h10l59 -165l-61 -32l-11 -50q-6 -29 -37.5 -45.5t-67.5 -18.5h-7.5h-7.5l-10 -1q-37 1 -65.5 14.5t-28.5 40.5v2.5v2.5t0.5 2.5t0.5 2.5l53 255q2 7 5.5 16.5t8.5 19.5q6 12 15 23t20 18q-7 9 -11 25t-4 35q0 6 0.5 12.5t1.5 13.5
q0 3 0.5 6.5t1.5 6.5v0zM225 481q0 -2 -0.5 -4t-0.5 -4q-1 -4 -1.5 -8.5t-0.5 -9.5q0 -7 1 -13.5t4 -11.5q5 5 8.5 10t4.5 12l33 160q2 7 0 11t-7 5q-4 -1 -8 -5.5t-6 -11.5l-27 -130v0z" />
    <glyph glyph-name="glyph10" unicode="'" horiz-adv-x="120" 
d="M212 554q-1 -3 -2 -7t-2 -7q-9 -23 -30 -42t-48 -20h-10l11 51q13 4 18.5 11t9.5 23q2 4 3 9t2 11l-19 12l22 108h10h66l-31 -149v0z" />
    <glyph glyph-name="glyph11" unicode="(" horiz-adv-x="152" 
d="M248 617l-126 -605v-6q0 -7 3.5 -12t9.5 -5l-13 -63h-10h-9q-42 1 -64 15.5t-22 37.5v2.5v2.5q0 2 0.5 3t0.5 3l135 650q6 27 33 45t77 18h10h10l-13 -62q-2 0 -3.5 -0.5t-3.5 -1.5q-5 -3 -9 -9t-6 -13v0z" />
    <glyph glyph-name="glyph12" unicode=")" horiz-adv-x="152" 
d="M156 617l1 6q0 8 -4 13t-9 5l13 62h10h9q45 0 66 -14.5t20 -37.5v-5t-1 -6l-135 -651q-6 -26 -36 -44t-76 -18l-10 -1h-8l13 62q8 1 14 7.5t7 16.5l126 605v0z" />
    <glyph glyph-name="glyph13" unicode="*" horiz-adv-x="315" 
d="M208 573l-69 29l45 67h10l52 -36l11 87l44 4h10l42 -4l-26 -87l68 36h10l16 -67l-80 -29l68 -29l-44 -68h-10l-53 36l-10 -86l-44 -4h-10l-42 4l25 86l-67 -36h-10l-17 68l81 29v0z" />
    <glyph glyph-name="glyph14" unicode="+" horiz-adv-x="294" 
d="M306 565l-31 -153h84l-16 -75h-84l-32 -155h-10h-74l32 155h-84l16 75h84l31 153h10h74v0z" />
    <glyph glyph-name="glyph15" unicode="," horiz-adv-x="120" 
d="M89 -29q-1 -2 -2 -6t-2 -7q-9 -23 -30 -42t-48 -20l-10 -1l11 51q13 5 18.5 11.5t9.5 22.5q1 4 2.5 9.5t2.5 10.5l-20 12l23 108h10h66l-31 -149v0z" />
    <glyph glyph-name="glyph16" unicode="-" horiz-adv-x="294" 
d="M238 412h121l-16 -75h-10h-242l16 75h10h121v0z" />
    <glyph glyph-name="glyph17" unicode="." horiz-adv-x="120" 
d="M122 120l-25 -120h-10h-66l25 120h10h66v0z" />
    <glyph glyph-name="glyph18" unicode="/" horiz-adv-x="243" 
d="M284 743h92l-289 -882h-10h-93l290 882h10v0z" />
    <glyph glyph-name="glyph19" unicode="0" horiz-adv-x="271" 
d="M151 631q1 6 5 13t9 14q10 13 24 25t29 17q5 1 9.5 2t8.5 1h10h80q19 0 33 -13.5t20 -30.5q2 -5 3 -10t1 -10v-4t-1 -4l-117 -563q-1 -5 -3 -10.5l-4 -10.5q-9 -18 -28 -33t-49 -15l-10 -1h-81q-29 1 -42.5 15.5t-15.5 32.5v3v4q0 4 0.5 7.5t1.5 7.5l117 563v0zM276 610
q2 8 -2 11.5t-9 4.5q-6 -1 -10.5 -4.5t-6.5 -11.5l-108 -521l-1 -5q1 -4 4 -7.5t7 -4.5q6 2 11.5 6t6.5 11l108 521v0z" />
    <glyph glyph-name="glyph20" unicode="1" horiz-adv-x="173" 
d="M227 699h70l-145 -699h-10h-91l112 537h-48l15 75q27 4 46 20.5t29 35.5q5 8 8 16t4 15h10v0z" />
    <glyph glyph-name="glyph21" unicode="2" horiz-adv-x="271" 
d="M340 430l-188 -350h116l-17 -80h-10h-221l14 67l208 377l33 156v2t1 2v2v2q-1 8 -3.5 12.5t-7.5 5.5q-7 -1 -12.5 -8t-7.5 -18l-29 -137h-10h-90l36 170q6 31 37 48.5t68 21.5q4 0 9 0.5t10 0.5h10q38 0 68 -15.5t30 -45.5v-2.5v-2.5t-0.5 -2.5t-0.5 -2.5l-43 -203v0z
" />
    <glyph glyph-name="glyph22" unicode="3" horiz-adv-x="271" 
d="M116 467l35 166q6 31 37 48.5t68 21.5q4 0 9 0.5t10 0.5h10q38 0 68 -15.5t30 -45.5v-2.5v-2.5t-0.5 -2.5t-0.5 -2.5l-31 -149q-7 -32 -19.5 -59t-42.5 -47q2 -1 3.5 -2.5l2.5 -2.5q6 -6 11 -16t8 -20q1 -5 1.5 -9t0.5 -8v-2v-2t-0.5 -2t-0.5 -2l-51 -245q-7 -32 -39 -49
t-69 -19q-5 -1 -9.5 -1h-8.5l-10 -1q-37 1 -67 15t-29 44v5t1 6l47 225h10h91l-40 -192q-1 -3 -1 -5.5v-4.5q0 -7 2.5 -11.5t6.5 -6.5q7 2 13 9t8 19l46 224q1 2 1 4.5v3.5q-1 12 -13.5 14t-38.5 2l15 72h12.5t15.5 2q11 1 21 5.5t12 14.5l32 156q1 2 1 4.5v4.5q0 8 -3 13
t-7 6q-1 0 -2 -0.5t-1 -1.5q-6 -3 -10.5 -9.5t-6.5 -16.5l-27 -131h-10h-91v0z" />
    <glyph glyph-name="glyph23" unicode="4" horiz-adv-x="271" 
d="M227 0h-91l43 206h-137l197 491h10h133l-87 -417h29l-15 -74h-29l-43 -206h-10v0zM240 508l-77 -228h30l47 228v0z" />
    <glyph glyph-name="glyph24" unicode="5" horiz-adv-x="271" 
d="M341 435l-76 -368q-7 -32 -39 -49t-69 -19q-5 -1 -9.5 -1h-8.5l-10 -1q-37 1 -67 15t-29 44v5t1 6l47 225h10h90l-40 -192q-1 -2 -1 -4.5v-4.5q0 -7 3 -11.5t7 -6.5q7 2 13 9t8 18l62 298q1 3 1 5.5v4.5q0 7 -2.5 11.5t-7.5 5.5q-7 -1 -13 -8t-8 -19l-8 -35h-10h-90
l70 334h10h219l-17 -74h-127l-28 -131q14 4 25 6t20 2h10q29 0 44.5 -14t19.5 -30q0 -3 0.5 -5.5t0.5 -5.5v-5.5t-1 -4.5v0z" />
    <glyph glyph-name="glyph25" unicode="6" horiz-adv-x="271" 
d="M205 410q15 5 27.5 6.5t22.5 1.5h10q33 0 44.5 -20t11.5 -45v-5.5v-5.5l-2 -15.5t-3 -14.5l-51 -245q-7 -31 -39.5 -48.5t-70.5 -18.5q-4 -1 -7.5 -1h-7.5l-10 -1q-37 1 -67.5 15.5t-29.5 43.5v4.5t1 5.5l117 565q7 32 38 50t67 22q5 0 10 0.5t10 0.5h10q38 0 67 -15.5
t29 -45.5v-6t-1 -6l-35 -171h-10h-91l28 137q1 3 1 5.5v4.5q0 7 -2.5 12t-7.5 6q-1 0 -2 -0.5t-1 -1.5q-6 -3 -10.5 -9.5t-6.5 -16.5l-39 -188v0zM186 315l-44 -215q-1 -3 -1 -5.5v-4.5q0 -7 2.5 -11.5t6.5 -6.5q1 0 2 0.5t1 1.5q6 3 10.5 9.5t6.5 16.5l44 215q1 3 1 5.5
v4.5q0 7 -2.5 11.5t-6.5 5.5q-1 0 -2 -0.5t-1 -1.5q-6 -2 -10.5 -8.5t-6.5 -16.5v0z" />
    <glyph glyph-name="glyph26" unicode="7" horiz-adv-x="217" 
d="M5 0l233 623h-105l15 74h10h196l-16 -75l-229 -622h-10h-94v0z" />
    <glyph glyph-name="glyph27" unicode="8" horiz-adv-x="271" 
d="M151 632q7 32 38 50t67 22q5 0 10 0.5t10 0.5h10q38 0 67 -15.5t29 -45.5v-6t-1 -6l-29 -148q-7 -32 -19.5 -59t-42.5 -47q2 -1 3.5 -2.5l2.5 -2.5q6 -6 11 -16t8 -20q1 -5 1.5 -9t0.5 -8v-2v-2t-0.5 -2t-0.5 -2l-51 -245q-7 -31 -39.5 -48.5t-70.5 -18.5q-4 -1 -7.5 -1
h-7.5l-10 -1q-37 1 -67.5 15.5t-29.5 43.5v4.5t1 5.5l51 245q1 5 4 11t7 13q4 6 9.5 12.5t11.5 12.5t11.5 10.5t10.5 6.5q-13 12 -18.5 27t-5.5 32q0 11 1.5 22.5t4.5 24.5l30 148v0zM214 315q1 3 1 5.5v4.5q0 7 -2.5 11.5t-6.5 5.5q-1 0 -2 -0.5t-1 -1.5q-6 -2 -10.5 -8.5
t-6.5 -16.5l-44 -215q-1 -3 -1 -5.5v-4.5q0 -7 2.5 -11.5t6.5 -6.5q1 0 2 0.5t1 1.5q6 3 10.5 9.5t6.5 16.5l44 215v0zM241 444l32 154q1 3 1 5.5v4.5q0 7 -2.5 12t-6.5 6q-1 0 -2 -0.5t-1 -1.5q-6 -3 -10.5 -9.5t-6.5 -16.5l-32 -154q-1 -3 -1 -5.5v-4.5q0 -7 2.5 -11.5
t6.5 -6.5q1 0 2 0.5t1 1.5q6 3 10.5 9.5t6.5 16.5v0z" />
    <glyph glyph-name="glyph28" unicode="9" horiz-adv-x="271" 
d="M380 631l-117 -565q-7 -30 -38 -47t-67 -20q-5 0 -10 -0.5t-10 -0.5l-10 -1q-37 1 -66.5 15t-29.5 43v5t1 6l35 171h10h91l-28 -137q-1 -3 -1 -5.5v-4.5q0 -7 2.5 -11.5t6.5 -6.5q1 1 2.5 1.5t3.5 1.5q4 3 8.5 9.5t6.5 15.5l39 188q-15 -4 -28 -6.5t-23 -2.5h-10
q-33 0 -44 20t-11 45v7.5t1 6.5q0 5 1 9.5t1 8.5q1 3 1.5 5.5t0.5 4.5l51 245q7 32 38.5 50.5t68.5 22.5q5 0 10 0.5t10 0.5h10q37 0 66 -15.5t29 -46.5v-6t-1 -6v0zM272 598q1 3 1 5.5v4.5q0 7 -2.5 12t-6.5 6q-1 0 -2 -0.5t-1 -1.5q-6 -3 -10.5 -9.5t-6.5 -16.5l-44 -215
q-1 -3 -1 -5.5v-4.5q0 -7 2.5 -11.5t6.5 -6.5q1 0 2 0.5t1 1.5q6 3 10.5 9.5t6.5 16.5l44 215v0z" />
    <glyph glyph-name="glyph29" unicode=":" horiz-adv-x="120" 
d="M122 120l-25 -120h-10h-66l25 120h10h66v0zM185 422l-25 -119h-10h-66l25 119h10h66v0z" />
    <glyph glyph-name="glyph30" unicode=";" horiz-adv-x="120" 
d="M10 -54q13 5 18.5 12t9.5 23q2 4 3 9l2 10l-20 12l23 108h10h66l-33 -159q-5 -24 -27.5 -42.5t-49.5 -22.5h-1h-2l-10 -1l11 51v0zM185 422l-25 -119h-10h-66l25 119h10h66v0z" />
    <glyph glyph-name="glyph31" unicode="&#x3c;" horiz-adv-x="163" 
d="M80 90l10 263l98 260h10h73l-108 -260v-263h-10h-73v0z" />
    <glyph glyph-name="glyph32" unicode="=" horiz-adv-x="294" 
d="M341 332l-16 -75h-10h-242l16 75h10h242v0zM106 412l15 76h10h242l-15 -76h-10h-242v0z" />
    <glyph glyph-name="glyph33" unicode="&#x3e;" horiz-adv-x="163" 
d="M108 90h-72l107 263l1 260h10h72l-9 -260l-99 -263h-10v0z" />
    <glyph glyph-name="glyph34" unicode="?" horiz-adv-x="271" 
d="M124 120h89l-25 -120h-10h-89l25 120h10v0zM243 445l32 155v2t1 2v2v2q-1 8 -3.5 12.5t-7.5 5.5q-7 -1 -12.5 -8t-7.5 -18l-29 -137h-10h-90l36 170q6 31 37 48.5t66 22.5q6 0 11.5 0.5t10.5 0.5h10q38 0 67.5 -15.5t29.5 -45.5v-2.5v-2.5q0 -2 -0.5 -3t-0.5 -3l-43 -205
q-4 -18 -18.5 -39.5l-31.5 -44.5l-14 -20t-13 -20q-8 -13 -14 -26t-8 -25l-18 -87h-10h-89l21 104q3 14 10 28.5t16 28.5q5 9 11 17t12 17l30.5 44.5t18.5 39.5v0z" />
    <glyph glyph-name="glyph35" unicode="@" horiz-adv-x="239" 
d="M58 134h74l-5 -21q-1 -7 2.5 -11t8.5 -6q1 0 2.5 0.5t2.5 1.5q4 2 8 5.5t5 9.5h10l70 -21q-9 -32 -35.5 -50.5t-56.5 -23.5q-5 -1 -10.5 -1.5t-10.5 -0.5h-10q-30 0 -53 15t-23 46q0 4 0.5 7.5t1.5 7.5l9 42h10v0zM255 581q2 7 -2 11t-10 5q-6 -1 -11 -5t-7 -11l-13 -60
l-81 -33h-10l24 113q5 27 33 42t61 18h6h6h10q32 0 57 -12.5t25 -38.5v-4.5t-1 -4.5l-92 -442h-10h-73l2 10q-19 -7 -33.5 -10.5t-25.5 -3.5h-10q-21 0 -30 10.5t-9 27.5q0 4 0.5 8t1.5 8l39 183q0 2 0.5 3.5t0.5 3.5q6 28 15 45t34 31q15 9 36.5 18t52.5 20l14 68v0z
M183 235l37 181l1 5q-1 5 -4.5 7.5t-8.5 3.5q-6 -1 -11 -5t-7 -11l-37 -181v-4q0 -5 3.5 -8.5t7.5 -4.5q7 1 12.5 5.5t6.5 11.5v0z" />
    <glyph glyph-name="glyph36" unicode="A" horiz-adv-x="286" 
d="M356 697l-96 -697h-10h-85l23 154h-38l-41 -154h-10h-85l194 697h10h138v0zM247 528l-77 -296h30l47 296v0z" />
    <glyph glyph-name="glyph37" unicode="B" horiz-adv-x="271" 
d="M19 0l146 700h10h149q27 0 43.5 -14t16.5 -40q0 -4 -0.5 -7.5t-1.5 -8.5l-30 -145q-7 -32 -19.5 -59t-42.5 -47q2 -1 3.5 -2t2.5 -3q6 -6 11 -15.5t8 -20.5q1 -4 1.5 -8t0.5 -8v-2v-2t-0.5 -2t-0.5 -2l-49 -239q-7 -30 -31 -52.5t-54 -22.5h-10h-153v0zM136 75h4.5
t3.5 -1q11 1 16.5 4t6.5 8l50 239q1 6 -6 8t-21 3l-54 -261v0zM275 608l1 4q-1 7 -8.5 9.5t-17.5 3.5l-42 -203h1.5h1.5q10 1 18.5 3t9.5 7l36 176v0z" />
    <glyph glyph-name="glyph38" unicode="C" horiz-adv-x="271" 
d="M150 631q6 28 31.5 50t54.5 22h10h80q25 0 41.5 -17t15.5 -42v-3v-3q0 -2 -0.5 -3.5t-0.5 -3.5l-34 -165h-10h-91l30 144v3q0 6 -3.5 9.5t-8.5 4.5q-6 -1 -11 -5t-7 -12l-108 -521l-1 -5q1 -4 4.5 -7.5t7.5 -4.5q6 2 11.5 6t6.5 10l44 212h10h91l-50 -240q-5 -25 -28 -43
t-53 -18l-10 -1h-86q-22 1 -39.5 15.5t-17.5 33.5v2v2l0.5 1t0.5 2l120 577v0z" />
    <glyph glyph-name="glyph39" unicode="D" horiz-adv-x="271" 
d="M175 700h141q31 0 48.5 -19t17.5 -45q0 -4 -0.5 -7.5t-1.5 -7.5l-112 -539q-6 -29 -27.5 -51t-46.5 -29q-4 -1 -8.5 -1.5t-8.5 -0.5h-10h-148l146 700h10v0zM275 608v3q0 6 -5.5 10t-13.5 4h-6l-115 -551h6q11 0 18.5 5.5t8.5 13.5l107 515v0z" />
    <glyph glyph-name="glyph40" unicode="E" 
d="M208 422h57l-15 -73h-57l-58 -275h58l-15 -74h-10h-148l145 697h10h147l-15 -74h-57l-42 -201v0z" />
    <glyph glyph-name="glyph41" unicode="F" 
d="M110 0h-90l145 697h10h147l-15 -74h-57l-42 -201h57l-15 -73h-57l-73 -349h-10v0z" />
    <glyph glyph-name="glyph42" unicode="G" horiz-adv-x="271" 
d="M196 18q-8 -7 -18 -11.5t-21 -6.5q-4 0 -8 -0.5t-8 -0.5l-10 -1h-44q-22 1 -40 14t-18 32v2t1 2v1v2l120 580q1 2 1.5 4.5t1.5 5.5q7 19 25.5 36t39.5 23q5 2 9.5 2.5t8.5 0.5h10h80q25 0 41 -19t16 -42v-2.5v-2.5q0 -2 -0.5 -3t-0.5 -3l-36 -174h-10h-91l32 153v3
q0 6 -3.5 9.5t-8.5 4.5q-6 -1 -11 -5t-7 -12l-108 -521l-1 -5q1 -4 4 -7.5t7 -4.5q7 1 12.5 6t7.5 12l40 195l-17 14l14 66h10h111l-76 -365h-10h-34l-11 18v0z" />
    <glyph glyph-name="glyph43" unicode="H" horiz-adv-x="271" 
d="M175 697h91l-57 -275h30l57 275h10h90l-145 -697h-10h-90l73 349h-30l-73 -349h-10h-91l145 697h10v0z" />
    <glyph glyph-name="glyph44" unicode="I" horiz-adv-x="141" 
d="M175 697h90l-145 -697h-10h-90l145 697h10v0z" />
    <glyph glyph-name="glyph45" unicode="J" horiz-adv-x="250" 
d="M21 60l49 231h10h79l-42 -201l-1 -5q1 -4 4.5 -7.5t7.5 -4.5q6 1 11.5 5.5t7.5 11.5l126 608h10h90l-133 -642q-6 -31 -31 -42.5t-54 -13.5q-8 0 -16.5 -0.5t-16.5 -0.5l-10 -1q-41 1 -66.5 12t-25.5 38v6t1 6v0z" />
    <glyph glyph-name="glyph46" unicode="K" horiz-adv-x="261" 
d="M152 0l26 277l-58 -277h-10h-90l145 697h10h90l-47 -229l74 229h10h91l-120 -312l-20 -385h-10h-91v0z" />
    <glyph glyph-name="glyph47" unicode="L" 
d="M265 697l-130 -623h58l-15 -74h-10h-148l145 697h10h90v0z" />
    <glyph glyph-name="glyph48" unicode="M" horiz-adv-x="370" 
d="M179 0h-20l26 345l-72 -345h-10h-83l145 697h10h101l-16 -334l122 334h10h102l-145 -697h-10h-83l72 346l-119 -346h-10h-20v0z" />
    <glyph glyph-name="glyph49" unicode="N" horiz-adv-x="283" 
d="M268 697l-16 -307l64 307h10h79l-145 -697h-10h-90l21 332l-69 -332h-10h-79l145 697h10h90v0z" />
    <glyph glyph-name="glyph50" unicode="O" horiz-adv-x="271" 
d="M246 703h80q25 0 41 -19t16 -42v-2.5v-2.5q0 -2 -0.5 -3t-0.5 -3l-117 -563q-1 -5 -3 -10.5l-4 -10.5q-9 -18 -28 -33t-49 -15l-10 -1h-81q-29 1 -42.5 15.5t-15.5 32.5v3v4q0 4 0.5 7.5t1.5 7.5l117 563q1 2 1.5 4.5t1.5 5.5q7 19 26 36.5t40 23.5q4 1 8 1.5t8 0.5h10v0
zM276 610q2 8 -2 11.5t-9 4.5q-6 -1 -10.5 -4.5t-6.5 -11.5l-108 -521l-1 -5q1 -4 4 -7.5t7 -4.5q6 2 11.5 6t6.5 11l108 521v0z" />
    <glyph glyph-name="glyph51" unicode="P" horiz-adv-x="261" 
d="M328 700q24 0 39.5 -14t14.5 -37v-3.5v-3.5t-0.5 -3.5t-0.5 -3.5l-64 -306q-1 -4 -2.5 -8t-3.5 -8q-9 -17 -28 -32t-40 -18h-2.5h-3.5h-62l-55 -263h-10h-90l146 700h10h152v0zM250 625l-60 -288h9q9 0 16 6.5t9 17.5l51 246v4q0 8 -7 10.5t-18 3.5v0z" />
    <glyph glyph-name="glyph52" unicode="Q" horiz-adv-x="271" 
d="M92 -2q-30 1 -45 16t-15 37q0 4 0.5 7.5t1.5 7.5l117 565q1 2 1.5 4.5t1.5 5.5q8 20 28 38t42 23q3 0 6 0.5t6 0.5h10h80q25 0 41 -18.5t16 -41.5v-6t-1 -6l-117 -565q-1 -4 -2.5 -9t-3.5 -10q-9 -18 -29 -33t-51 -15l56 -16l-38 -50h-10h-5q-7 1 -18 5.5t-23 11.5
q-11 7 -22 16t-18 18l-5.5 7.5t-3.5 7.5v-1zM167 86l109 524q2 8 -2 11.5t-9 4.5q-6 -1 -10.5 -4.5t-6.5 -11.5l-109 -524v-4q0 -4 3 -7.5t7 -4.5q6 2 11.5 6t6.5 10v0z" />
    <glyph glyph-name="glyph53" unicode="R" horiz-adv-x="271" 
d="M329 700q22 0 38.5 -16t16.5 -40v-6t-1 -6l-45 -216q-1 -4 -2.5 -8.5t-3.5 -8.5q-7 -14 -18 -26.5t-23 -19.5q-1 -1 -2.5 -1.5t-3.5 -1.5q12 -9 18.5 -20t8.5 -22q1 -2 1 -4.5v-4.5v-5.5t-1 -4.5l-60 -289h-10h-91l61 291v3q0 7 -7 10.5t-20 3.5l-64 -308h-10h-91
l146 700h10h153v0zM235 404l42 204q2 9 -4.5 13t-21.5 4l-49 -237l5 -1q13 2 20 6t8 11v0z" />
    <glyph glyph-name="glyph54" unicode="S" horiz-adv-x="271" 
d="M277 612v4q0 5 -3 7.5t-8 3.5q-7 -1 -12 -5t-7 -10l-28 -135q0 -1 -0.5 -2t-0.5 -2v-2v-2q0 -4 1 -7.5t2 -6.5q5 -10 15.5 -20.5l26.5 -27.5q23 -25 35.5 -45.5t14.5 -40.5q1 -3 1 -5v-5q0 -4 -0.5 -8.5t-1.5 -9.5l-48 -229q-6 -32 -38 -48.5t-70 -19.5q-4 -1 -8.5 -1
h-8.5l-10 -1q-37 1 -67.5 15.5t-29.5 44.5v4.5t1 4.5l47 225h10h90l-42 -200v-3q0 -6 3.5 -9t8.5 -4q6 1 11.5 5t6.5 11l40 193q0 2 0.5 3.5t0.5 3.5q1 2 1 3.5v3.5v2v2q-2 14 -13 29.5t-36 39.5q-23 23 -34 44t-11 41v4t1 5q0 2 0.5 4t0.5 4l33 159q7 33 37.5 51.5
t66.5 23.5q6 0 11.5 0.5t10.5 0.5h10q38 0 67 -15.5t29 -47.5v-3v-3q0 -2 -0.5 -3.5t-0.5 -3.5l-36 -170h-10h-91l32 153v0z" />
    <glyph glyph-name="glyph55" unicode="T" horiz-adv-x="196" 
d="M177 623h-43l15 74h10h177l-15 -74h-43l-130 -623h-10h-91l130 623v0z" />
    <glyph glyph-name="glyph56" unicode="U" horiz-adv-x="271" 
d="M263 58q-6 -29 -39 -43.5t-71 -15.5h-6h-6l-10 -1q-39 1 -69.5 14t-30.5 40v1.5t1 1.5v2v2l133 638h10h90l-127 -612q-1 -6 2.5 -9t9.5 -5q6 2 11 5t6 8l128 613h10h91l-133 -639v0z" />
    <glyph glyph-name="glyph57" unicode="V" horiz-adv-x="250" 
d="M71 0l76 697h10h91l-69 -436l113 436h10h90l-214 -697h-10h-97v0z" />
    <glyph glyph-name="W" unicode="W" horiz-adv-x="381" 
d="M160 0h-94l81 697h10h86l-51 -345l97 345h10h83l-47 -353l94 353h10h84l-208 -697h-10h-93l47 329l-89 -329h-10v0z" />
    <glyph glyph-name="glyph59" unicode="X" horiz-adv-x="261" 
d="M7 0l125 379l25 318h10h92l-29 -215l60 215h10h92l-107 -318l-34 -379h-10h-91l38 281l-79 -281h-10h-92v0z" />
    <glyph glyph-name="glyph60" unicode="Y" horiz-adv-x="239" 
d="M130 299l18 398h10h85l-24 -218l67 218h10h85l-148 -398l-62 -299h-10h-93l62 299v0z" />
    <glyph glyph-name="glyph61" unicode="Z" horiz-adv-x="207" 
d="M126 74h81l-15 -74h-10h-177l213 623h-76l15 74h10h168l-209 -623v0z" />
    <glyph glyph-name="glyph62" unicode="[" horiz-adv-x="152" 
d="M252 641l-149 -720h16l-13 -62h-10h-107l175 844h10h107l-13 -62h-16v0z" />
    <glyph glyph-name="glyph63" unicode="\" horiz-adv-x="217" 
d="M259 743l-77 -882h-10h-93l77 882h10h93v0z" />
    <glyph glyph-name="glyph64" unicode="]" horiz-adv-x="152" 
d="M163 641h-17l13 62h10h107l-175 -844h-10h-107l13 62h17l149 720v0z" />
    <glyph glyph-name="glyph65" unicode="^" horiz-adv-x="217" 
d="M106 504l107 238h10h83l8 -240h-10h-66l-3 126l-53 -124h-10h-66v0z" />
    <glyph glyph-name="glyph66" unicode="_" horiz-adv-x="457" 
d="M225 -37h224l-15 -76h-10h-448l15 76h10h224v0z" />
    <glyph glyph-name="glyph67" unicode="`" horiz-adv-x="120" 
d="M160 667q1 4 2 7.5t2 6.5q10 23 31 42t47 21h10l-11 -52q-13 -4 -18.5 -10.5t-9.5 -22.5q-1 -4 -2.5 -9.5t-2.5 -11.5l19 -11l-22 -108h-10h-66l31 148v0z" />
    <glyph glyph-name="glyph68" unicode="a" horiz-adv-x="239" 
d="M68 233q0 2 0.5 4t1.5 4q6 28 15.5 44.5t33.5 31.5q15 8 36.5 17t52.5 20l29 143l1 5q-1 5 -4.5 7.5t-8.5 3.5q-6 -1 -11 -5t-7 -11l-25 -120h-10h-74l29 140q6 27 34 42t61 18h6h6h10q32 0 57 -12.5t24 -37.5v-2.5v-2.5t-0.5 -2.5t-0.5 -2.5l-107 -517h-10h-73l2 9
q-20 -6 -35.5 -9t-26.5 -3l-10 -1q-19 1 -28 9.5t-9 22.5v5t1 6l40 194v0zM150 76l37 181l1 5q-1 5 -4 8t-8 4q-6 -1 -11.5 -5.5t-7.5 -11.5l-37 -181v-4q0 -4 3.5 -7.5t7.5 -4.5q7 1 12.5 5.5t6.5 10.5v0z" />
    <glyph glyph-name="glyph69" unicode="b" horiz-adv-x="239" 
d="M222 564q17 6 30.5 9t24.5 3h10q20 0 30 -10t10 -30q0 -4 -0.5 -8.5t-1.5 -9.5l-98 -472q-5 -24 -19 -35.5t-40 -11.5l-10 -1q-10 1 -23.5 2.5t-28.5 5.5l-1 -6h-10h-75l146 703h10h75l-29 -139v0zM150 78l87 417v4q0 5 -3.5 8.5t-8.5 4.5h-1.5t-1.5 -1q-5 -1 -9 -5.5
t-5 -10.5l-87 -417q-1 -7 2.5 -10.5t8.5 -5.5q6 1 11.5 5t6.5 11v0z" />
    <glyph glyph-name="glyph70" unicode="c" horiz-adv-x="239" 
d="M127 517q6 28 34.5 43t61.5 17h5.5h4.5h10q32 0 57 -12.5t25 -37.5v-2.5v-2.5t-0.5 -2.5t-0.5 -2.5l-36 -174h-10h-74l32 154q2 7 -2 10.5t-9 4.5q-6 -1 -11 -4.5t-7 -10.5l-88 -424q-1 -7 2.5 -10.5t8.5 -5.5q6 1 11.5 5t6.5 11l36 172h10h74l-40 -193
q-5 -25 -31.5 -38.5t-57.5 -16.5q-4 -1 -8.5 -1h-8.5l-10 -1q-32 1 -57 12.5t-25 35.5v4.5t1 4.5l96 465v0z" />
    <glyph glyph-name="glyph71" unicode="d" horiz-adv-x="239" 
d="M250 563l29 140h10h74l-146 -703h-10h-74l1 6q-14 -6 -26 -8.5t-22 -2.5l-10 -1q-24 1 -35.5 14.5t-11.5 30.5v4.5t1 4.5l98 471q5 25 20.5 40.5t41.5 15.5h10q10 0 23 -3t27 -9v0zM150 80l86 417q2 7 -2 10.5t-9 4.5q-6 -1 -11 -4.5t-7 -10.5l-86 -417l-1 -5
q1 -4 4 -7.5t7 -4.5q1 0 1.5 0.5t1.5 0.5q5 2 10 6t6 10v0z" />
    <glyph glyph-name="glyph72" unicode="e" horiz-adv-x="239" 
d="M127 517q6 28 34.5 43t61.5 17h5.5h4.5h10q32 0 57 -12.5t25 -37.5v-2.5v-2.5t-0.5 -2.5t-0.5 -2.5l-51 -248h-113l-41 -196q-1 -7 2.5 -10.5t8.5 -5.5q6 1 11.5 5t6.5 11l28 132h10h74l-32 -153q-5 -25 -31.5 -38.5t-57.5 -16.5q-4 -1 -8.5 -1h-8.5l-10 -1
q-32 1 -57 12.5t-25 35.5v4.5t1 4.5l96 465v0zM202 331l34 166q2 7 -2 10.5t-9 4.5q-6 -1 -11 -4.5t-7 -10.5l-34 -166h29v0z" />
    <glyph glyph-name="glyph73" unicode="f" horiz-adv-x="141" 
d="M270 640h-2t-1 1h-2h-2q-14 -1 -21 -13t-12 -30l-5 -27h33l-11 -51h-33l-108 -520h-10h-74l108 520h-23l11 51h23l9 47q10 44 33 65.5t63 21.5h10h10.5t11.5 -1q4 0 7.5 -0.5t7.5 -1.5l-13 -62h-10v0z" />
    <glyph glyph-name="glyph74" unicode="g" horiz-adv-x="239" 
d="M251 565l1 6h10h74l-129 -618q-8 -36 -35.5 -62t-58.5 -29h-3.5h-3.5l-10 -1h-103l13 61h74q18 2 29 10.5t15 27.5l10 46q-17 -5 -31 -7.5t-24 -2.5l-10 -1q-22 1 -31.5 11t-9.5 26q0 4 0.5 7.5t1.5 7.5l98 472q5 26 21 41.5t42 15.5h10q10 0 22.5 -3t27.5 -8v0zM149 79
l87 417q2 7 -2 11t-9 5q-6 -1 -11 -5t-7 -11l-87 -417q-1 -7 2.5 -11t8.5 -6q6 2 11.5 6t6.5 11v0z" />
    <glyph glyph-name="glyph75" unicode="h" horiz-adv-x="239" 
d="M222 561q17 8 31.5 12t25.5 4h10q20 0 29 -11t9 -31q0 -1 -0.5 -3t-0.5 -3q0 -4 -0.5 -7.5t-1.5 -7.5l-107 -514h-10h-73l102 491l1 5q0 7 -3.5 10.5t-8.5 4.5q-6 -1 -11 -6.5t-7 -13.5l-102 -491h-10h-75l146 703h10h75l-29 -142v0z" />
    <glyph glyph-name="glyph76" unicode="i" horiz-adv-x="130" 
d="M95 0h-73l119 571h10h73l-119 -571h-10v0zM251 703l-15 -74h-10h-73l15 74h10h73v0z" />
    <glyph glyph-name="glyph77" unicode="j" horiz-adv-x="130" 
d="M-48 -79h16q20 1 30.5 10t14.5 29l128 611h10h73l-131 -627q-8 -40 -35.5 -61t-77.5 -21l-11 -1h-30l13 60v0zM153 629l15 74h10h73l-15 -74h-10h-73v0z" />
    <glyph glyph-name="glyph78" unicode="k" horiz-adv-x="239" 
d="M153 239l-49 -239h-10h-74l146 703h10h74l-63 -305l65 173h10h79l-105 -247l-3 -324h-10h-81l11 239v0z" />
    <glyph glyph-name="glyph79" unicode="l" horiz-adv-x="130" 
d="M95 0h-73l146 703h10h73l-146 -703h-10v0z" />
    <glyph glyph-name="glyph80" unicode="m" horiz-adv-x="348" 
d="M319 556q22 11 39.5 16t29.5 5h10q20 0 29.5 -11t8.5 -31v-9.5t-2 -11.5l-107 -514h-10h-74l102 491l1 5q0 5 -3.5 8.5t-8.5 4.5q-6 -1 -11 -5.5t-7 -12.5l-102 -491h-10h-74l102 491l1 5q-1 7 -4 10t-8 4q-1 0 -2 -0.5t-2 -0.5q-4 -2 -8 -6t-6 -12l-102 -491h-10h-74
l119 571h10h74l-3 -11q21 10 36 14t25 4h10q14 0 21.5 -6.5t9.5 -15.5v0z" />
    <glyph glyph-name="glyph81" unicode="n" horiz-adv-x="239" 
d="M95 0h-75l119 571h10h75l-2 -10q19 8 34.5 11.5t26.5 3.5h10q18 0 26 -9.5t8 -27.5q0 -5 -0.5 -11.5t-2.5 -13.5l-107 -514h-10h-73l102 491l1 4q0 5 -3.5 8.5t-8.5 4.5q-6 -1 -11 -5t-7 -12l-102 -491h-10v0z" />
    <glyph glyph-name="glyph82" unicode="o" horiz-adv-x="239" 
d="M324 517l-96 -465q-5 -24 -31.5 -38t-57.5 -16q-4 -1 -8.5 -1h-8.5l-10 -1q-32 1 -57 12.5t-25 35.5v4t1 4l96 465q6 28 34.5 43t61.5 17h5.5h4.5h10q32 0 57 -12.5t25 -37.5v-2.5v-2.5t-0.5 -2.5t-0.5 -2.5v0zM236 497q2 7 -2 10.5t-9 4.5q-6 -1 -11 -4.5t-7 -10.5
l-88 -424q-1 -7 2.5 -10.5t8.5 -5.5q6 1 11.5 5t6.5 11l88 424v0z" />
    <glyph glyph-name="glyph83" unicode="p" horiz-adv-x="239" 
d="M228 53q-5 -25 -23 -40.5t-44 -15.5l-10 -1q-7 1 -15.5 2.5t-17.5 4.5l-5 2.5t-6 3.5l-30 -146h-10h-75l147 708h10h75l-2 -11q20 7 35.5 10.5t26.5 3.5h10q17 0 25.5 -7.5t8.5 -24.5q0 -4 -0.5 -8.5t-1.5 -9.5l-98 -471v0zM208 493l-87 -417v-4q0 -4 3 -7.5t7 -4.5h1.5
t1.5 1q5 1 10 5t6 10l87 417v4q0 6 -3.5 10t-8.5 5q-1 0 -1.5 -0.5t-1.5 -0.5q-5 -2 -9 -6.5t-5 -11.5v0z" />
    <glyph glyph-name="glyph84" unicode="q" horiz-adv-x="239" 
d="M134 7q-19 -7 -34.5 -10t-26.5 -3l-10 -1q-19 1 -27 10.5t-8 26.5q0 5 1 11l2 12l98 471q5 24 19 36.5t36 12.5h10q11 0 25.5 -3t30.5 -9l2 10h10h74l-147 -708h-10h-74l29 144v0zM236 493v4q0 6 -3.5 10t-8.5 5q-1 0 -1.5 -0.5t-1.5 -0.5q-5 -2 -9 -6.5t-5 -11.5
l-87 -417v-4q0 -4 3 -7.5t7 -4.5h1.5t1.5 1q5 1 10 5t6 10l87 417v0z" />
    <glyph glyph-name="glyph85" unicode="r" horiz-adv-x="228" 
d="M149 571h75l-2 -11q20 7 36 10.5t27 3.5h10q17 0 25 -7.5t8 -23.5q0 -4 -0.5 -9t-1.5 -10l-36 -175h-10h-73l29 142q2 7 -2.5 10.5t-9.5 4.5q-6 -1 -10.5 -4.5t-6.5 -10.5l-102 -491h-10h-75l119 571h10v0z" />
    <glyph glyph-name="glyph86" unicode="s" horiz-adv-x="239" 
d="M212 382l24 115q2 7 -2 10.5t-9 4.5q-6 -1 -11 -4.5t-7 -10.5l-24 -119q-1 -2 -1 -4v-4q0 -3 0.5 -5.5t1.5 -5.5q4 -8 13.5 -16.5t28.5 -21.5q15 -10 24.5 -23t13.5 -27l2 -12t1 -12v-7t-1 -6l-38 -182q-5 -25 -33.5 -38.5t-60.5 -15.5q-4 -1 -7.5 -1h-7.5l-10 -1
q-31 1 -55.5 11.5t-24.5 32.5v2t1 2v1v2l34 163h10h74l-28 -132v-4q0 -7 3.5 -10.5t7.5 -5.5q1 0 1.5 0.5t1.5 0.5q5 2 10 6.5t6 11.5l30 145q1 2 1 4.5v4.5v2.5v2.5q-2 10 -12 20.5t-31 25.5q-16 11 -25.5 25t-13.5 28l-2 11.5t-1 11.5q0 4 0.5 7.5t1.5 7.5l29 142
q6 27 34.5 42t61.5 17h4.5h4.5h10q32 0 57.5 -12.5t25.5 -37.5v-4.5t-1 -4.5l-28 -133h-10h-74v0z" />
    <glyph glyph-name="glyph87" unicode="t" horiz-adv-x="141" 
d="M34 60l95 455h-23l12 56h23l25 124l76 6h10l-27 -130h33l-12 -56h-33l-90 -434v-1.5v-1.5q-1 -1 -1 -2v-2t0.5 -2.5t0.5 -3.5q1 -6 5.5 -11.5t14.5 -5.5h7l-12 -54h-10h-18q-43 1 -59.5 16t-17.5 34v1.5v1.5v2.5v2.5t0.5 2.5t0.5 2.5v0z" />
    <glyph glyph-name="glyph88" unicode="u" horiz-adv-x="239" 
d="M207 0h-74l2 11q-17 -7 -31 -9.5t-25 -2.5l-10 -1q-20 1 -30 11t-9 28q0 5 0.5 10t1.5 10l107 514h10h74l-102 -491l-1 -5q1 -4 4 -7t7 -4h1.5t1.5 1q5 1 10 5t6 10l102 491h10h74l-119 -571h-10v0z" />
    <glyph glyph-name="glyph89" unicode="v" horiz-adv-x="207" 
d="M205 571l-53 -334l87 334h10h72l-177 -571h-10h-74l62 571h10h73v0z" />
    <glyph glyph-name="glyph90" unicode="w" horiz-adv-x="326" 
d="M369 571h70l-172 -571h-10h-76l38 270l-75 -270h-10h-76l66 571h10h71l-39 -281l81 281h10h60l-38 -281l80 281h10v0z" />
    <glyph glyph-name="glyph91" unicode="x" horiz-adv-x="207" 
d="M150 230l-64 -230h-10h-74l100 310l25 261h10h72l-25 -181l50 181h10h73l-85 -261l-28 -310h-10h-74l30 230v0z" />
    <glyph glyph-name="glyph92" unicode="y" horiz-adv-x="217" 
d="M71 -24l56 595h10h76l-49 -323l82 323h10h75l-185 -609q-18 -56 -56 -79t-126 -23l-11 -1l12 61q55 1 78 14.5t27 35.5l1 6v0z" />
    <glyph glyph-name="glyph93" unicode="z" horiz-adv-x="196" 
d="M143 571h161l-183 -511h79l-12 -60h-10h-171l185 513h-71l12 58h10v0z" />
    <glyph glyph-name="glyph94" unicode="{" horiz-adv-x="239" 
d="M81 337q30 5 48.5 31t27.5 69l45 219q7 30 26.5 51.5t41.5 30.5q7 3 14 4.5t14 1.5h10h64l-11 -53h-23q-12 0 -22 -12.5t-15 -32.5l-46 -221q-11 -54 -34.5 -80.5t-76.5 -43.5l-1 -3q35 -13 50.5 -30.5t15.5 -48.5q0 -10 -1.5 -21t-4.5 -24l-46 -221q-1 -4 -1.5 -7.5
t-0.5 -7.5q0 -13 5.5 -21t14.5 -8l23 -1l-11 -52h-10h-64q-23 1 -42 18.5t-19 49.5q0 4 0.5 9.5t1.5 10.5l46 219q2 12 3.5 22.5t1.5 19.5q0 24 -9.5 39t-30.5 18l16 75v0z" />
    <glyph glyph-name="glyph95" unicode="|" horiz-adv-x="141" 
d="M71 -139h-74l183 882h10h74l-183 -882h-10v0z" />
    <glyph glyph-name="glyph96" unicode="}" horiz-adv-x="239" 
d="M287 337l-16 -75q-30 -4 -47.5 -30t-26.5 -69l-46 -220q-6 -29 -24.5 -49.5t-40.5 -29.5q-8 -3 -15.5 -5t-14.5 -2l-10 -1h-65l11 52h23q12 1 22 13.5t14 32.5l46 220q11 54 34.5 81t78.5 43l1 3q-36 13 -52 30.5t-16 48.5q0 10 1.5 21t4.5 24l46 221q1 5 1.5 9t0.5 8
q0 13 -5 20.5t-14 7.5h-23l11 53h10h65q23 0 41.5 -17.5t18.5 -49.5v-10.5t-2 -10.5l-45 -219q-3 -13 -4 -24t-1 -21q0 -24 9 -38t29 -17v0z" />
    <glyph glyph-name="glyph97" unicode="~" horiz-adv-x="261" 
d="M162 602h-24l10 47q4 20 21.5 35t38.5 20q3 0 6.5 0.5t6.5 0.5h10q4 0 8 -0.5t8 -1.5q2 -1 4 -1.5t4 -1.5q4 -3 9.5 -8.5t11.5 -12.5q1 -2 2.5 -4t3.5 -4l13.5 -18.5t10.5 -11.5q1 0 1.5 -0.5l1.5 -1.5q5 3 9.5 9t5.5 13l4 18h10h49l-8 -40q-1 -4 -2 -7.5t-3 -7.5
q-9 -19 -28 -35.5t-40 -19.5q-2 -1 -4.5 -1h-4.5h-10q-4 0 -7.5 1t-6.5 2q-11 3 -20 12t-17 19l-13 17t-10 12h-0.5t-0.5 1h-0.5h-0.5q-1 0 -2.5 -1t-2.5 -2q-4 -3 -8 -9t-5 -13v-5h-10h-21v0z" />
    <glyph glyph-name="uni007F" horiz-adv-x="146" 
 />
    <glyph glyph-name="F" 
d="M148 300h-35q-13 8 -19 20.5t-6 25.5v3.5t1 3.5q0 2 0.5 3.5t0.5 3.5q0 1 0.5 2.5t0.5 3.5q5 16 17 30.5t30 23.5h10h70q14 -7 20 -19.5t6 -26.5q0 -2 -0.5 -4t-0.5 -3q0 -2 -0.5 -3.5t-0.5 -3.5q0 -1 -0.5 -2.5t-0.5 -3.5q-5 -16 -17 -30.5t-31 -23.5h-10h-35v0z" />
    <glyph glyph-name="uni0081" 
d="M148 300h-35q-13 8 -19 20.5t-6 25.5v3.5t1 3.5q0 2 0.5 3.5t0.5 3.5q0 1 0.5 2.5t0.5 3.5q5 16 17 30.5t30 23.5h10h70q14 -7 20 -19.5t6 -26.5q0 -2 -0.5 -4t-0.5 -3q0 -2 -0.5 -3.5t-0.5 -3.5q0 -1 -0.5 -2.5t-0.5 -3.5q-5 -16 -17 -30.5t-31 -23.5h-10h-35v0z" />
    <glyph glyph-name="D" 
d="M148 300h-35q-13 8 -19 20.5t-6 25.5v3.5t1 3.5q0 2 0.5 3.5t0.5 3.5q0 1 0.5 2.5t0.5 3.5q5 16 17 30.5t30 23.5h10h70q14 -7 20 -19.5t6 -26.5q0 -2 -0.5 -4t-0.5 -3q0 -2 -0.5 -3.5t-0.5 -3.5q0 -1 -0.5 -2.5t-0.5 -3.5q-5 -16 -17 -30.5t-31 -23.5h-10h-35v0z" />
    <glyph glyph-name="N" 
d="M148 300h-35q-13 8 -19 20.5t-6 25.5v3.5t1 3.5q0 2 0.5 3.5t0.5 3.5q0 1 0.5 2.5t0.5 3.5q5 16 17 30.5t30 23.5h10h70q14 -7 20 -19.5t6 -26.5q0 -2 -0.5 -4t-0.5 -3q0 -2 -0.5 -3.5t-0.5 -3.5q0 -1 -0.5 -2.5t-0.5 -3.5q-5 -16 -17 -30.5t-31 -23.5h-10h-35v0z" />
    <glyph glyph-name="bullet" 
d="M148 300h-35q-13 8 -19 20.5t-6 25.5v3.5t1 3.5q0 2 0.5 3.5t0.5 3.5q0 1 0.5 2.5t0.5 3.5q5 16 17 30.5t30 23.5h10h70q14 -7 20 -19.5t6 -26.5q0 -2 -0.5 -4t-0.5 -3q0 -2 -0.5 -3.5t-0.5 -3.5q0 -1 -0.5 -2.5t-0.5 -3.5q-5 -16 -17 -30.5t-31 -23.5h-10h-35v0z" />
    <glyph glyph-name="guilsinglleft" 
d="M148 300h-35q-13 8 -19 20.5t-6 25.5v3.5t1 3.5q0 2 0.5 3.5t0.5 3.5q0 1 0.5 2.5t0.5 3.5q5 16 17 30.5t30 23.5h10h70q14 -7 20 -19.5t6 -26.5q0 -2 -0.5 -4t-0.5 -3q0 -2 -0.5 -3.5t-0.5 -3.5q0 -1 -0.5 -2.5t-0.5 -3.5q-5 -16 -17 -30.5t-31 -23.5h-10h-35v0z" />
    <glyph glyph-name="O" 
d="M148 300h-35q-13 8 -19 20.5t-6 25.5v3.5t1 3.5q0 2 0.5 3.5t0.5 3.5q0 1 0.5 2.5t0.5 3.5q5 16 17 30.5t30 23.5h10h70q14 -7 20 -19.5t6 -26.5q0 -2 -0.5 -4t-0.5 -3q0 -2 -0.5 -3.5t-0.5 -3.5q0 -1 -0.5 -2.5t-0.5 -3.5q-5 -16 -17 -30.5t-31 -23.5h-10h-35v0z" />
    <glyph glyph-name="tilde" 
d="M148 300h-35q-13 8 -19 20.5t-6 25.5v3.5t1 3.5q0 2 0.5 3.5t0.5 3.5q0 1 0.5 2.5t0.5 3.5q5 16 17 30.5t30 23.5h10h70q14 -7 20 -19.5t6 -26.5q0 -2 -0.5 -4t-0.5 -3q0 -2 -0.5 -3.5t-0.5 -3.5q0 -1 -0.5 -2.5t-0.5 -3.5q-5 -16 -17 -30.5t-31 -23.5h-10h-35v0z" />
    <glyph glyph-name="uni00A0" unicode="&#xa0;" horiz-adv-x="10" 
 />
    <glyph glyph-name="Z" unicode="&#xa1;" horiz-adv-x="239" 
d="M61 0l48 150l40 547h10h85l-37 -288l80 288h10h85l-226 -697h-10h-85v0zM219 788l65 -21l73 21h10l-15 -69h-10h-148l15 69h10v0z" />
    <glyph glyph-name="cent" unicode="&#xa2;" horiz-adv-x="217" 
d="M70 -24l56 595h10h76l-47 -315l80 315h10h76l-186 -609q-18 -56 -56 -79t-126 -23l-11 -1l12 61q55 1 78 14.5t27 35.5l1 6v0zM318 697l-14 -68h-10h-113l14 68h10l51 -10l52 10h10v0z" />
    <glyph glyph-name="endash" unicode="&#xa3;" horiz-adv-x="217" 
d="M120 120l-31 -149q-1 -2 -2 -6t-2 -7q-9 -23 -30 -42t-48 -20l-10 -1l11 51q13 5 18.5 11.5t9.5 22.5q1 4 2.5 9.5t2.5 10.5l-20 12l23 108h10h66v0zM155 120h67l-31 -149q-1 -2 -2 -6t-2 -7q-10 -23 -31 -42t-48 -20l-10 -1l11 51q14 5 19.5 12t10.5 23q1 5 2 9.5t2 9.5
l-21 12l23 108h10v0z" />
    <glyph glyph-name="currency" unicode="&#xa4;" horiz-adv-x="146" 
 />
    <glyph glyph-name="emdash" unicode="&#xa5;" horiz-adv-x="196" 
d="M110 0h-90l145 697h90l63 30h10l-21 -104h-57l-130 -623h-10v0z" />
    <glyph glyph-name="circumflex" unicode="&#xa6;" horiz-adv-x="141" 
d="M71 -139h-74l183 882h10h74l-183 -882h-10v0z" />
    <glyph glyph-name="scaron" unicode="&#xa7;" horiz-adv-x="261" 
d="M292 241q-8 -40 -24 -59t-38 -27q4 -5 7.5 -10.5l6.5 -10.5q6 -10 10 -20.5t4 -24.5q0 -5 -0.5 -11t-2.5 -13l-31 -148q-6 -29 -38.5 -45t-70.5 -19h-6h-6l-10 -1q-37 1 -65 15t-28 41v2.5v2.5t0.5 2.5t0.5 2.5l27 129h10h91l-22 -103v-4q0 -3 2 -6t5 -4q5 1 9 5t5 10
l23 109q1 6 -4 17.5t-13 24.5l-8 12t-9 12q-3 4 -6.5 7.5l-6.5 6.5q-23 22 -31 41.5t-8 34.5q0 5 0.5 10t1.5 9l18 90q9 41 24.5 60t36.5 27q-3 6 -6.5 11t-6.5 10q-6 10 -10 20.5t-4 24.5q0 5 1 11t2 13l31 148q6 30 38 46t69 19h6h6h10q37 0 66 -14t29 -41v-2.5v-2.5
t-0.5 -2.5t-0.5 -2.5l-27 -130h-10h-91l21 103v4q0 4 -2 7t-6 4q-4 -1 -8 -5t-6 -10l-22 -109q-1 -6 4 -17.5t13 -24.5l7.5 -11.5t7.5 -10.5t8 -9.5t7 -7.5q25 -22 33 -42t8 -36q0 -4 -0.5 -8.5t-1.5 -8.5l-19 -91v0zM187 223l24 115l1 5q0 5 -2.5 7.5t-6.5 3.5q-4 -1 -8 -5
t-6 -11l-24 -115v-4q0 -4 2 -7t5 -5q5 2 9.5 5.5t5.5 10.5v0z" />
    <glyph glyph-name="H" unicode="&#xa8;" 
d="M208 422h58l-15 -73h-58l-58 -275h58l-15 -74h-10h-148l145 697h10h148l-15 -74h-58l-42 -201v0zM169 719l15 69h10h61l-15 -69h-10h-61v0zM317 719h-62l15 69h10h62l-15 -69h-10v0z" />
    <glyph glyph-name="I" unicode="&#xa9;" horiz-adv-x="271" 
d="M171 -2h-81q-29 1 -42.5 15.5t-15.5 32.5v3v4q0 4 0.5 7.5t1.5 7.5l18 84h10h91l-13 -63l-1 -5q1 -4 4 -7.5t7 -4.5q6 2 11.5 6t6.5 11l13 63h10h92l-18 -84q-1 -5 -3 -10.5l-4 -10.5q-9 -18 -28 -33t-49 -15l-10 -1v0zM212 167h-101q-24 0 -34.5 14t-10.5 38
q0 8 1.5 15.5t2.5 15.5l43 209q8 38 31 60.5t57 22.5h10h78q32 0 47 -12.5t15 -38.5q0 -5 -0.5 -11t-2.5 -12l-11 -55h-10h-91l10 51q0 1 0.5 2t0.5 2v2v2q0 7 -3 11t-8 5q-6 -1 -11.5 -7t-7.5 -16l-42 -202l-1 -5q1 -5 4 -8.5t7 -4.5q7 2 13 7t8 15l10 52h10h91l-14 -68
q-7 -37 -25 -60.5t-56 -23.5h-10v0zM276 610q2 7 -2 10.5t-9 4.5q-6 -1 -10.5 -4.5t-6.5 -10.5l-11 -50h-10h-91l15 71q1 6 5 12.5l9 14.5q13 16 34.5 30t44.5 14h10h60q22 0 39.5 -14.5t25.5 -31.5q2 -5 3 -9.5t1 -9.5l-1 -6l-15 -71h-10h-92l11 50v0z" />
    <glyph glyph-name="J" unicode="&#xaa;" horiz-adv-x="271" 
d="M194 349l-54 -260l-1 -5q1 -4 4 -7.5t7 -4.5q7 1 12.5 6t7.5 12l42 202h10h90l-48 -230q-5 -25 -28.5 -44t-52.5 -19l-10 -1h-86q-20 1 -36 16.5t-19 34.5v2.5v2.5v4.5t1 3.5l118 568q4 20 20 37.5t35 26.5q8 5 15.5 7t14.5 2h10h77q32 0 46 -17.5t14 -42.5
q0 -4 -0.5 -8.5t-1.5 -9.5l-33 -159h-10h-90l28 137q1 2 1 4.5v4.5q0 7 -2.5 10.5t-7.5 4.5q-7 -1 -13 -7t-8 -17l-37 -181h57l-15 -73h-57v0z" />
    <glyph glyph-name="ampersand" unicode="&#xab;" horiz-adv-x="228" 
d="M149 181h-64l1 197l80 193h10h64l-81 -193v-197h-10v0zM186 181v197l81 193h10h64l-82 -193l1 -197h-10h-64v0z" />
    <glyph glyph-name="quotesingle" unicode="&#xac;" horiz-adv-x="315" 
d="M372 412l-28 -132h-10h-91l12 57h-166l16 75h10h257v0z" />
    <glyph glyph-name="daggerdbl" unicode="&#xad;" horiz-adv-x="294" 
d="M238 412h121l-16 -75h-10h-242l16 75h10h121v0z" />
    <glyph glyph-name="dagger" unicode="&#xae;" horiz-adv-x="271" 
d="M170 235l-8 -38v-4q0 -5 3 -8.5t7 -4.5q6 2 11.5 6t6.5 11l8 38h10h92l-12 -59q-1 -5 -3 -10.5t-5 -11.5q-9 -18 -28.5 -33.5t-48.5 -15.5h-10h-81q-29 0 -42 15t-15 33v3v4q0 5 0.5 8.5t1.5 7.5l12 59h10h91v0zM362 534l-12 -60q-5 -23 -19.5 -40.5t-46.5 -24.5
q23 -6 32 -18.5t9 -27.5v-4t-1 -4q0 -2 -0.5 -4t-0.5 -4l-20 -96h-10h-92l22 105q0 1 0.5 2t0.5 2v2v2q0 8 -4 12.5t-11 4.5h-10l-27 -130h-10h-90l72 344h10h166q17 0 30.5 -12.5t13.5 -34.5q0 -3 -0.5 -6.5t-1.5 -7.5v0zM244 452l14 69q1 2 1 4.5v4.5q0 9 -4.5 13.5
t-10.5 4.5h-9l-25 -121h9q8 0 15.5 6.5t9.5 18.5v0zM281 634q2 7 -2 10.5t-9 4.5q-6 -1 -10.5 -4.5t-6.5 -10.5l-5 -25h-10h-91l9 46q1 6 5 12.5l9 14.5q13 16 34.5 30t44.5 14h10h60q22 0 39.5 -14.5t25.5 -31.5q2 -5 3 -9.5t1 -9.5l-1 -6l-9 -46h-10h-92l5 25v0z" />
    <glyph glyph-name="macron" unicode="&#xaf;" horiz-adv-x="141" 
d="M175 697h90l-145 -697h-10h-90l145 697h10v0zM141 719l15 69h10h61l-15 -69h-10h-61v0zM288 719h-61l15 69h10h61l-15 -69h-10v0z" />
    <glyph glyph-name="degree" unicode="&#xb0;" horiz-adv-x="283" 
d="M132 526l29 136q6 31 38.5 48t70.5 19q4 1 7.5 1h7.5h10q38 0 67.5 -14.5t29.5 -43.5v-4.5t-1 -5.5l-29 -136q-6 -31 -38.5 -48.5t-70.5 -19.5q-4 -1 -7.5 -1h-7.5h-10q-38 0 -67.5 15t-29.5 44v4.5t1 5.5v0zM284 628q1 3 1 5.5v4.5q0 7 -2.5 12t-7.5 6q-6 -2 -11.5 -9
t-7.5 -19l-15 -68q0 -1 -0.5 -2.5t-0.5 -2.5v-3v-3q0 -7 2.5 -11.5t6.5 -6.5q1 0 2 0.5t1 1.5q6 3 10.5 10t6.5 17l15 68v0z" />
    <glyph glyph-name="at" unicode="&#xb1;" horiz-adv-x="294" 
d="M187 173h121l-16 -75h-10h-242l16 75h10h121v0zM306 566l-27 -126h84l-15 -75h-84l-30 -143h-10h-74l30 143h-84l15 75h84l27 126h10h74v0z" />
    <glyph glyph-name="P" unicode="&#xb2;" horiz-adv-x="141" 
d="M175 697h90l-145 -697h-10h-90l145 697h10v0zM169 719l15 69h10h90l-15 -69h-10h-90v0z" />
    <glyph glyph-name="S" unicode="&#xb3;" horiz-adv-x="130" 
d="M95 0h-73l119 571h10h73l-119 -571h-10v0zM251 703l-15 -74h-10h-73l15 74h10h73v0z" />
    <glyph glyph-name="T" unicode="&#xb4;" horiz-adv-x="141" 
d="M176 584h-52l71 118h10h76l-95 -118h-10v0z" />
    <glyph glyph-name="U" unicode="&#xb5;" horiz-adv-x="163" 
d="M19 0l119 571h74l50 22h10l-17 -84h-46l-106 -509h-10h-74v0z" />
    <glyph glyph-name="V" unicode="&#xb6;" horiz-adv-x="326" 
d="M161 265h-25q-22 0 -37 15.5t-17 34.5q-1 1 -1 3v4v4.5t1 4.5l63 306l2 6t2 5q7 16 22.5 30t31.5 21q6 2 12 3.5t12 1.5h10h99l-175 -842h-10h-74l84 403v0zM264 -138h-74l175 842h10h74l-175 -842h-10v0z" />
    <glyph glyph-name="quoteleft" unicode="&#xb8;" horiz-adv-x="239" 
d="M127 517q5 25 31.5 39.5t57.5 17.5q4 1 8.5 1h8.5h10q32 0 57 -12.5t25 -36.5v-4.5t-1 -4.5l-51 -248h-113l-41 -196q-1 -7 2.5 -10.5t8.5 -5.5q6 1 11.5 5t6.5 11l28 132h10h74l-32 -153q-5 -25 -31.5 -38.5t-57.5 -16.5q-4 -1 -8.5 -1h-8.5l-10 -1q-32 1 -57 12.5
t-25 35.5v4.5t1 4.5l96 465v0zM202 331l34 166q2 7 -2 10.5t-9 4.5q-6 -1 -11 -4.5t-7 -10.5l-34 -166h29v0zM152 630l15 73h10h74l-15 -73h-10h-74v0zM338 630h-74l15 73h10h74l-15 -73h-10v0z" />
    <glyph glyph-name="one" unicode="&#xb9;" horiz-adv-x="533" 
d="M175 697h91l-17 -306l64 306h10h78l-145 -697h-10h-91l23 331l-69 -331h-10h-79l145 697h10v0zM557 211l-16 -76h-10h-220l16 76h10h220v0zM384 486q7 32 40 48.5t72 19.5h6h6h10q38 0 68 -14.5t29 -43.5v-4.5t-1 -5.5l-28 -135q-7 -31 -38.5 -48t-68.5 -20
q-4 -1 -8.5 -1h-8.5h-10q-38 0 -68 15t-29 44v4.5t1 5.5l28 135v0zM478 453l-14 -68q-1 -3 -1 -5.5v-4.5q0 -7 2.5 -12t6.5 -7q1 0 2 0.5t1 1.5q6 3 10.5 10t6.5 17l14 68q1 3 1 5.5v4.5q0 7 -2.5 12t-6.5 6q-1 0 -2 -0.5t-1 -1.5q-6 -3 -10.5 -9.5t-6.5 -16.5v0z" />
    <glyph glyph-name="G" unicode="&#xba;" horiz-adv-x="239" 
d="M173 331h39l-13 -62h-39l-41 -196q-1 -7 2.5 -10.5t8.5 -5.5q6 1 11.5 5t6.5 11l30 144h10h74l-34 -165q-5 -25 -31.5 -38.5t-57.5 -16.5q-4 -1 -8.5 -1h-8.5l-10 -1q-32 1 -57 12.5t-25 35.5v4.5t1 4.5l96 465v1q5 26 32 40t59 16q3 1 6.5 1h7.5h10q32 0 57.5 -12
t25.5 -36v-4.5t-1 -4.5v-1l-30 -147h-10h-74l26 127q2 7 -2 10.5t-9 4.5q-6 -1 -11 -4.5t-7 -10.5l-34 -166v0z" />
    <glyph glyph-name="bracketleft" unicode="&#xbb;" horiz-adv-x="239" 
d="M108 181h-64l82 197l-1 193h10h64v-193l-81 -197h-10v0zM144 181l83 197l-2 193h10h64l1 -193l-82 -197h-10h-64v0z" />
    <glyph glyph-name="w" unicode="&#xbc;" horiz-adv-x="294" 
d="M237 238l-15 -75h-10h-74l15 75h10h74v0zM358 412l-16 -75h-10h-242l16 75h10h242v0zM269 567h37l-16 -75h-10h-74l16 75h10h37v0z" />
    <glyph glyph-name="bracketright" unicode="&#xbd;" horiz-adv-x="283" 
d="M231 415l80 99h10l40 -56l-101 -122l52 -113l-61 -67h-10l-43 107l-88 -107h-10l-32 67l99 113l-50 122l63 56h10l41 -99v0z" />
    <glyph glyph-name="R" unicode="&#xbe;" horiz-adv-x="337" 
d="M85 0h-66l25 120h10h66l-25 -120h-10v0zM226 120l-25 -120h-10h-67l25 120h10h67v0zM296 0h-66l25 120h10h66l-25 -120h-10v0z" />
    <glyph glyph-name="underscore" unicode="&#xbf;" horiz-adv-x="141" 
d="M225 571l-119 -571h-10h-74l119 571h10h74v0zM116 628l15 75h10h61l-15 -75h-10h-61v0zM264 628h-62l15 75h10h62l-15 -75h-10v0z" />
    <glyph glyph-name="grave" unicode="&#xc0;" horiz-adv-x="261" 
d="M344 697l-96 -697h-10h-84l22 154h-38l-41 -154h-10h-85l194 697h10h138v0zM237 537l-79 -305h30l49 305v0z" />
    <glyph glyph-name="grave" unicode="&#x410;" horiz-adv-x="261" 
d="M344 697l-96 -697h-10h-84l22 154h-38l-41 -154h-10h-85l194 697h10h138v0zM237 537l-79 -305h30l49 305v0z" />
    <glyph glyph-name="a" unicode="&#xc1;" horiz-adv-x="271" 
d="M321 335l-54 -260q-7 -30 -30.5 -52.5t-53.5 -22.5h-10h-153l145 697h10h176l-15 -74h-85l-45 -213h62q26 0 40.5 -17t14.5 -42q0 -4 -0.5 -7.5t-1.5 -8.5v0zM191 336l-55 -262h4t3 -1q11 1 17.5 4.5t7.5 8.5l50 239q1 6 -6 8t-21 3v0z" />
    <glyph glyph-name="a" unicode="&#x411;" horiz-adv-x="271" 
d="M321 335l-54 -260q-7 -30 -30.5 -52.5t-53.5 -22.5h-10h-153l145 697h10h176l-15 -74h-85l-45 -213h62q26 0 40.5 -17t14.5 -42q0 -4 -0.5 -7.5t-1.5 -8.5v0zM191 336l-55 -262h4t3 -1q11 1 17.5 4.5t7.5 8.5l50 239q1 6 -6 8t-21 3v0z" />
    <glyph glyph-name="b" unicode="&#xc2;" horiz-adv-x="271" 
d="M19 0l146 700h10h149q27 0 43.5 -14t16.5 -40q0 -4 -0.5 -7.5t-1.5 -8.5l-30 -145q-7 -32 -19.5 -59t-42.5 -47q2 -1 3.5 -2t2.5 -3q6 -6 11 -15.5t8 -20.5q1 -4 1.5 -8t0.5 -8v-2v-2t-0.5 -2t-0.5 -2l-49 -239q-7 -30 -31 -52.5t-54 -22.5h-10h-153v0zM136 75h4.5
t3.5 -1q11 1 16.5 4t6.5 8l50 239q1 6 -6 8t-21 3l-54 -261v0zM275 608l1 4q-1 7 -8.5 9.5t-17.5 3.5l-42 -203h1.5h1.5q10 1 18.5 3t9.5 7l36 176v0z" />
    <glyph glyph-name="b" unicode="&#x412;" horiz-adv-x="271" 
d="M19 0l146 700h10h149q27 0 43.5 -14t16.5 -40q0 -4 -0.5 -7.5t-1.5 -8.5l-30 -145q-7 -32 -19.5 -59t-42.5 -47q2 -1 3.5 -2t2.5 -3q6 -6 11 -15.5t8 -20.5q1 -4 1.5 -8t0.5 -8v-2v-2t-0.5 -2t-0.5 -2l-49 -239q-7 -30 -31 -52.5t-54 -22.5h-10h-153v0zM136 75h4.5
t3.5 -1q11 1 16.5 4t6.5 8l50 239q1 6 -6 8t-21 3l-54 -261v0zM275 608l1 4q-1 7 -8.5 9.5t-17.5 3.5l-42 -203h1.5h1.5q10 1 18.5 3t9.5 7l36 176v0z" />
    <glyph glyph-name="c" unicode="&#xc3;" 
d="M110 0h-90l145 697h10h147l-15 -74h-57l-130 -623h-10v0z" />
    <glyph glyph-name="c" unicode="&#x413;" 
d="M110 0h-90l145 697h10h147l-15 -74h-57l-130 -623h-10v0z" />
    <glyph glyph-name="d" unicode="&#xc4;" horiz-adv-x="283" 
d="M102 0l-19 -91h-10h-90l34 165q15 0 24 10.5t15 32.5l121 580h10h220l-130 -623h20l-34 -165h-10h-90l19 91h-80v0zM158 125q-4 -13 -8.5 -26t-11.5 -25h39l115 549h-30l-104 -498v0z" />
    <glyph glyph-name="d" unicode="&#x414;" horiz-adv-x="283" 
d="M102 0l-19 -91h-10h-90l34 165q15 0 24 10.5t15 32.5l121 580h10h220l-130 -623h20l-34 -165h-10h-90l19 91h-80v0zM158 125q-4 -13 -8.5 -26t-11.5 -25h39l115 549h-30l-104 -498v0z" />
    <glyph glyph-name="e" unicode="&#xc5;" 
d="M208 422h57l-15 -73h-57l-58 -275h58l-15 -74h-10h-148l145 697h10h147l-15 -74h-57l-42 -201v0z" />
    <glyph glyph-name="e" unicode="&#x415;" 
d="M208 422h57l-15 -73h-57l-58 -275h58l-15 -74h-10h-148l145 697h10h147l-15 -74h-57l-42 -201v0z" />
    <glyph glyph-name="f" unicode="&#xc6;" horiz-adv-x="381" 
d="M140 0l60 284l-92 -284h-10h-91l139 385l11 312h10h91l-22 -236l49 236h10h90l-49 -237l77 237h10h91l-120 -312l-21 -385h-10h-91l28 284l-60 -284h-10h-90v0z" />
    <glyph glyph-name="f" unicode="&#x416;" horiz-adv-x="381" 
d="M140 0l60 284l-92 -284h-10h-91l139 385l11 312h10h91l-22 -236l49 236h10h90l-49 -237l77 237h10h91l-120 -312l-21 -385h-10h-91l28 284l-60 -284h-10h-90v0z" />
    <glyph glyph-name="g" unicode="&#xc7;" horiz-adv-x="283" 
d="M242 445l32 155q1 3 1 5.5v4.5q0 7 -2.5 12t-7.5 6q-1 0 -2 -0.5t-1 -1.5q-6 -3 -10.5 -9.5t-6.5 -16.5l-28 -133h-10h-90l34 165q7 32 38 50t67 22q5 0 10 0.5t10 0.5h10q38 0 68 -16.5t29 -48.5v-6t-1 -6l-30 -144q-7 -32 -19.5 -59t-42.5 -47q2 -1 3.5 -2.5l2.5 -2.5
q6 -6 11 -16t8 -20q1 -5 1.5 -9t0.5 -8v-2v-2t-0.5 -2t-0.5 -2l-51 -245q-7 -32 -39 -49t-69 -19q-5 -1 -9.5 -1h-8.5l-10 -1q-37 1 -67 15t-29 44v5t1 6l47 225h10h91l-41 -195l-1 -7q1 -7 3.5 -11.5t6.5 -6.5q1 0 1.5 0.5t1.5 0.5q5 3 10 9t6 15l47 227l1 7
q-1 12 -13.5 15t-36.5 3l15 73h12t15 2q12 1 21.5 6t11.5 15v0z" />
    <glyph glyph-name="g" unicode="&#x417;" horiz-adv-x="283" 
d="M242 445l32 155q1 3 1 5.5v4.5q0 7 -2.5 12t-7.5 6q-1 0 -2 -0.5t-1 -1.5q-6 -3 -10.5 -9.5t-6.5 -16.5l-28 -133h-10h-90l34 165q7 32 38 50t67 22q5 0 10 0.5t10 0.5h10q38 0 68 -16.5t29 -48.5v-6t-1 -6l-30 -144q-7 -32 -19.5 -59t-42.5 -47q2 -1 3.5 -2.5l2.5 -2.5
q6 -6 11 -16t8 -20q1 -5 1.5 -9t0.5 -8v-2v-2t-0.5 -2t-0.5 -2l-51 -245q-7 -32 -39 -49t-69 -19q-5 -1 -9.5 -1h-8.5l-10 -1q-37 1 -67 15t-29 44v5t1 6l47 225h10h91l-41 -195l-1 -7q1 -7 3.5 -11.5t6.5 -6.5q1 0 1.5 0.5t1.5 0.5q5 3 10 9t6 15l47 227l1 7
q-1 12 -13.5 15t-36.5 3l15 73h12t15 2q12 1 21.5 6t11.5 15v0z" />
    <glyph glyph-name="h" unicode="&#xc8;" horiz-adv-x="283" 
d="M189 373l125 324h10h82l-145 -697h-10h-81l72 343l-130 -343h-10h-82l145 697h10h81l-67 -324v0z" />
    <glyph glyph-name="h" unicode="&#x418;" horiz-adv-x="283" 
d="M189 373l125 324h10h82l-145 -697h-10h-81l72 343l-130 -343h-10h-82l145 697h10h81l-67 -324v0z" />
    <glyph glyph-name="i" unicode="&#xc9;" horiz-adv-x="283" 
d="M324 697h82l-145 -697h-10h-81l72 343l-130 -343h-10h-82l145 697h10h81l-67 -324l125 324h10v0zM234 788l64 -21l73 21h10l-15 -69h-10h-147l15 69h10v0z" />
    <glyph glyph-name="i" unicode="&#x419;" horiz-adv-x="283" 
d="M324 697h82l-145 -697h-10h-81l72 343l-130 -343h-10h-82l145 697h10h81l-67 -324l125 324h10v0zM234 788l64 -21l73 21h10l-15 -69h-10h-147l15 69h10v0z" />
    <glyph glyph-name="j" unicode="&#xca;" horiz-adv-x="261" 
d="M152 0l26 277l-58 -277h-10h-90l145 697h10h90l-47 -229l74 229h10h91l-120 -312l-20 -385h-10h-91v0z" />
    <glyph glyph-name="j" unicode="&#x41a;" horiz-adv-x="261" 
d="M152 0l26 277l-58 -277h-10h-90l145 697h10h90l-47 -229l74 229h10h91l-120 -312l-20 -385h-10h-91v0z" />
    <glyph glyph-name="k" unicode="&#xcb;" horiz-adv-x="294" 
d="M2 0l15 71h10h2h3q1 -1 2 -1h2q11 2 17.5 11t9.5 22l124 594h10h221l-145 -697h-10h-90l130 623h-30l-109 -523q-10 -46 -40 -74.5t-77 -28.5l-10 -1l-16.5 2t-18.5 2v0z" />
    <glyph glyph-name="k" unicode="&#x41b;" horiz-adv-x="294" 
d="M2 0l15 71h10h2h3q1 -1 2 -1h2q11 2 17.5 11t9.5 22l124 594h10h221l-145 -697h-10h-90l130 623h-30l-109 -523q-10 -46 -40 -74.5t-77 -28.5l-10 -1l-16.5 2t-18.5 2v0z" />
    <glyph glyph-name="l" unicode="&#xcc;" horiz-adv-x="370" 
d="M179 0h-20l26 345l-72 -345h-10h-83l145 697h10h101l-16 -334l122 334h10h102l-145 -697h-10h-83l72 346l-119 -346h-10h-20v0z" />
    <glyph glyph-name="l" unicode="&#x41c;" horiz-adv-x="370" 
d="M179 0h-20l26 345l-72 -345h-10h-83l145 697h10h101l-16 -334l122 334h10h102l-145 -697h-10h-83l72 346l-119 -346h-10h-20v0z" />
    <glyph glyph-name="m" unicode="&#xcd;" horiz-adv-x="271" 
d="M175 697h91l-57 -275h30l57 275h10h90l-145 -697h-10h-90l73 349h-30l-73 -349h-10h-91l145 697h10v0z" />
    <glyph glyph-name="m" unicode="&#x41d;" horiz-adv-x="271" 
d="M175 697h91l-57 -275h30l57 275h10h90l-145 -697h-10h-90l73 349h-30l-73 -349h-10h-91l145 697h10v0z" />
    <glyph glyph-name="n" unicode="&#xce;" horiz-adv-x="271" 
d="M246 703h80q25 0 41 -19t16 -42v-2.5v-2.5q0 -2 -0.5 -3t-0.5 -3l-117 -563q-1 -5 -3 -10.5l-4 -10.5q-9 -18 -28 -33t-49 -15l-10 -1h-81q-29 1 -42.5 15.5t-15.5 32.5v3v4q0 4 0.5 7.5t1.5 7.5l117 563q1 2 1.5 4.5t1.5 5.5q7 19 26 36.5t40 23.5q4 1 8 1.5t8 0.5h10v0
zM276 610q2 8 -2 11.5t-9 4.5q-6 -1 -10.5 -4.5t-6.5 -11.5l-108 -521l-1 -5q1 -4 4 -7.5t7 -4.5q6 2 11.5 6t6.5 11l108 521v0z" />
    <glyph glyph-name="n" unicode="&#x41e;" horiz-adv-x="271" 
d="M246 703h80q25 0 41 -19t16 -42v-2.5v-2.5q0 -2 -0.5 -3t-0.5 -3l-117 -563q-1 -5 -3 -10.5l-4 -10.5q-9 -18 -28 -33t-49 -15l-10 -1h-81q-29 1 -42.5 15.5t-15.5 32.5v3v4q0 4 0.5 7.5t1.5 7.5l117 563q1 2 1.5 4.5t1.5 5.5q7 19 26 36.5t40 23.5q4 1 8 1.5t8 0.5h10v0
zM276 610q2 8 -2 11.5t-9 4.5q-6 -1 -10.5 -4.5t-6.5 -11.5l-108 -521l-1 -5q1 -4 4 -7.5t7 -4.5q6 2 11.5 6t6.5 11l108 521v0z" />
    <glyph glyph-name="o" unicode="&#xcf;" horiz-adv-x="271" 
d="M111 0h-91l145 697h10h221l-145 -697h-10h-90l130 623h-30l-130 -623h-10v0z" />
    <glyph glyph-name="o" unicode="&#x41f;" horiz-adv-x="271" 
d="M111 0h-91l145 697h10h221l-145 -697h-10h-90l130 623h-30l-130 -623h-10v0z" />
    <glyph glyph-name="p" unicode="&#xd0;" horiz-adv-x="261" 
d="M328 700q24 0 39.5 -14t14.5 -37v-3.5v-3.5t-0.5 -3.5t-0.5 -3.5l-64 -306q-1 -4 -2.5 -8t-3.5 -8q-9 -17 -28 -32t-40 -18h-2.5h-3.5h-62l-55 -263h-10h-90l146 700h10h152v0zM250 625l-60 -288h9q9 0 16 6.5t9 17.5l51 246v4q0 8 -7 10.5t-18 3.5v0z" />
    <glyph glyph-name="p" unicode="&#x420;" horiz-adv-x="261" 
d="M328 700q24 0 39.5 -14t14.5 -37v-3.5v-3.5t-0.5 -3.5t-0.5 -3.5l-64 -306q-1 -4 -2.5 -8t-3.5 -8q-9 -17 -28 -32t-40 -18h-2.5h-3.5h-62l-55 -263h-10h-90l146 700h10h152v0zM250 625l-60 -288h9q9 0 16 6.5t9 17.5l51 246v4q0 8 -7 10.5t-18 3.5v0z" />
    <glyph glyph-name="q" unicode="&#xd1;" horiz-adv-x="271" 
d="M150 631q6 28 31.5 50t54.5 22h10h80q25 0 41.5 -17t15.5 -42v-3v-3q0 -2 -0.5 -3.5t-0.5 -3.5l-34 -165h-10h-91l30 144v3q0 6 -3.5 9.5t-8.5 4.5q-6 -1 -11 -5t-7 -12l-108 -521l-1 -5q1 -4 4.5 -7.5t7.5 -4.5q6 2 11.5 6t6.5 10l44 212h10h91l-50 -240q-5 -25 -28 -43
t-53 -18l-10 -1h-86q-22 1 -39.5 15.5t-17.5 33.5v2v2l0.5 1t0.5 2l120 577v0z" />
    <glyph glyph-name="q" unicode="&#x421;" horiz-adv-x="271" 
d="M150 631q6 28 31.5 50t54.5 22h10h80q25 0 41.5 -17t15.5 -42v-3v-3q0 -2 -0.5 -3.5t-0.5 -3.5l-34 -165h-10h-91l30 144v3q0 6 -3.5 9.5t-8.5 4.5q-6 -1 -11 -5t-7 -12l-108 -521l-1 -5q1 -4 4.5 -7.5t7.5 -4.5q6 2 11.5 6t6.5 10l44 212h10h91l-50 -240q-5 -25 -28 -43
t-53 -18l-10 -1h-86q-22 1 -39.5 15.5t-17.5 33.5v2v2l0.5 1t0.5 2l120 577v0z" />
    <glyph glyph-name="Scaron" unicode="&#xd2;" horiz-adv-x="196" 
d="M177 623h-43l15 74h10h177l-15 -74h-43l-130 -623h-10h-91l130 623v0z" />
    <glyph glyph-name="Scaron" unicode="&#x422;" horiz-adv-x="196" 
d="M177 623h-43l15 74h10h177l-15 -74h-43l-130 -623h-10h-91l130 623v0z" />
    <glyph glyph-name="r" unicode="&#xd3;" horiz-adv-x="239" 
d="M61 0l48 150l40 547h10h85l-37 -288l80 288h10h85l-226 -697h-10h-85v0z" />
    <glyph glyph-name="r" unicode="&#x423;" horiz-adv-x="239" 
d="M61 0l48 150l40 547h10h85l-37 -288l80 288h10h85l-226 -697h-10h-85v0z" />
    <glyph glyph-name="t" unicode="&#xd4;" horiz-adv-x="392" 
d="M301 703h90l-8 -39h58q2 0 4.5 -0.5t4.5 -0.5q19 -4 34 -20t15 -37v-4.5t-1 -4.5l-81 -390q-5 -26 -20.5 -44t-32.5 -28q-9 -6 -18.5 -8.5t-16.5 -2.5h-58l-26 -124h-10h-90l26 124h-58q-3 0 -6 0.5t-6 1.5q-17 4 -30.5 20t-13.5 42q0 5 0.5 9.5t1.5 9.5l81 390
q4 18 19.5 33.5t33.5 24.5q8 4 16.5 6.5t15.5 2.5h58l8 39h10v0zM176 198h10l81 391h-10q-9 0 -15 -6t-8 -15l-72 -345q0 -1 -0.5 -2t-0.5 -2v-2v-2q0 -7 4 -12t11 -5v0zM296 198q8 0 15 7.5t9 17.5l72 345l1 6q0 7 -4 11t-12 4h-10l-81 -391h10v0z" />
    <glyph glyph-name="t" unicode="&#x424;" horiz-adv-x="392" 
d="M301 703h90l-8 -39h58q2 0 4.5 -0.5t4.5 -0.5q19 -4 34 -20t15 -37v-4.5t-1 -4.5l-81 -390q-5 -26 -20.5 -44t-32.5 -28q-9 -6 -18.5 -8.5t-16.5 -2.5h-58l-26 -124h-10h-90l26 124h-58q-3 0 -6 0.5t-6 1.5q-17 4 -30.5 20t-13.5 42q0 5 0.5 9.5t1.5 9.5l81 390
q4 18 19.5 33.5t33.5 24.5q8 4 16.5 6.5t15.5 2.5h58l8 39h10v0zM176 198h10l81 391h-10q-9 0 -15 -6t-8 -15l-72 -345q0 -1 -0.5 -2t-0.5 -2v-2v-2q0 -7 4 -12t11 -5v0zM296 198q8 0 15 7.5t9 17.5l72 345l1 6q0 7 -4 11t-12 4h-10l-81 -391h10v0z" />
    <glyph glyph-name="u" unicode="&#xd5;" horiz-adv-x="261" 
d="M7 0l125 379l25 318h10h92l-29 -215l60 215h10h92l-107 -318l-34 -379h-10h-91l38 281l-79 -281h-10h-92v0z" />
    <glyph glyph-name="u" unicode="&#x425;" horiz-adv-x="261" 
d="M7 0l125 379l25 318h10h92l-29 -215l60 215h10h92l-107 -318l-34 -379h-10h-91l38 281l-79 -281h-10h-92v0z" />
    <glyph glyph-name="zero" unicode="&#xd6;" horiz-adv-x="271" 
d="M135 74h30l130 623h10h91l-130 -623h20l-34 -165h-10h-91l19 91h-150l145 697h10h90l-130 -623v0z" />
    <glyph glyph-name="zero" unicode="&#x426;" horiz-adv-x="271" 
d="M135 74h30l130 623h10h91l-130 -623h20l-34 -165h-10h-91l19 91h-150l145 697h10h90l-130 -623v0z" />
    <glyph glyph-name="parenright" unicode="&#xd7;" horiz-adv-x="271" 
d="M192 348v-5q0 -4 2 -6.5t6 -3.5q4 0 9 2l12 5l74 357h10h91l-145 -697h-10h-91l55 264q-13 -3 -25.5 -5.5t-22.5 -2.5h-10q-31 0 -46.5 15t-15.5 38q0 2 0.5 4.5t0.5 5.5q0 1 0.5 2.5t0.5 2.5l78 373h10h90l-73 -349v0z" />
    <glyph glyph-name="parenright" unicode="&#x427;" horiz-adv-x="271" 
d="M192 348v-5q0 -4 2 -6.5t6 -3.5q4 0 9 2l12 5l74 357h10h91l-145 -697h-10h-91l55 264q-13 -3 -25.5 -5.5t-22.5 -2.5h-10q-31 0 -46.5 15t-15.5 38q0 2 0.5 4.5t0.5 5.5q0 1 0.5 2.5t0.5 2.5l78 373h10h90l-73 -349v0z" />
    <glyph glyph-name="x" unicode="&#xd8;" horiz-adv-x="403" 
d="M20 0l145 697h10h90l-130 -623h30l130 623h10h90l-130 -623h30l130 623h10h90l-145 -697h-10h-350v0z" />
    <glyph glyph-name="x" unicode="&#x428;" horiz-adv-x="403" 
d="M20 0l145 697h10h90l-130 -623h30l130 623h10h90l-130 -623h30l130 623h10h90l-145 -697h-10h-350v0z" />
    <glyph glyph-name="y" unicode="&#xd9;" horiz-adv-x="403" 
d="M395 74h20l-34 -165h-10h-90l19 91h-280l145 697h10h90l-130 -623h30l130 623h10h90l-130 -623h30l130 623h10h90l-130 -623v0z" />
    <glyph glyph-name="y" unicode="&#x429;" horiz-adv-x="403" 
d="M395 74h20l-34 -165h-10h-90l19 91h-280l145 697h10h90l-130 -623h30l130 623h10h90l-130 -623h30l130 623h10h90l-130 -623v0z" />
    <glyph glyph-name="z" unicode="&#xda;" horiz-adv-x="294" 
d="M180 623h-53l15 74h10h144l-57 -275h57q23 0 40 -18.5t17 -47.5v-4.5t-1 -4.5q0 -3 -0.5 -5.5t-0.5 -4.5l-52 -250q-7 -34 -30.5 -58t-50.5 -28q-2 -1 -4.5 -1h-5.5h-10h-148l130 623v0zM201 101l47 224v5q0 8 -5.5 13.5t-16.5 5.5h-2l-57 -274h2q11 0 20.5 7t11.5 19v0z
" />
    <glyph glyph-name="z" unicode="&#x42a;" horiz-adv-x="294" 
d="M180 623h-53l15 74h10h144l-57 -275h57q23 0 40 -18.5t17 -47.5v-4.5t-1 -4.5q0 -3 -0.5 -5.5t-0.5 -4.5l-52 -250q-7 -34 -30.5 -58t-50.5 -28q-2 -1 -4.5 -1h-5.5h-10h-148l130 623v0zM201 101l47 224v5q0 8 -5.5 13.5t-16.5 5.5h-2l-57 -274h2q11 0 20.5 7t11.5 19v0z
" />
    <glyph glyph-name="braceleft" unicode="&#xdb;" horiz-adv-x="392" 
d="M177 697h91l-57 -275h56q23 0 40.5 -18.5t17.5 -48.5v-4.5t-1 -4.5q0 -3 -0.5 -5.5t-0.5 -4.5l-52 -249q-7 -35 -32 -59.5t-53 -27.5h-3.5h-3.5h-10h-147l145 697h10v0zM140 75q11 0 21 7t12 19l47 224v5q0 8 -5.5 13.5t-17.5 5.5h-1l-57 -274h1v0zM514 697l-145 -697
h-10h-91l145 697h10h91v0z" />
    <glyph glyph-name="braceleft" unicode="&#x42b;" horiz-adv-x="392" 
d="M177 697h91l-57 -275h56q23 0 40.5 -18.5t17.5 -48.5v-4.5t-1 -4.5q0 -3 -0.5 -5.5t-0.5 -4.5l-52 -249q-7 -35 -32 -59.5t-53 -27.5h-3.5h-3.5h-10h-147l145 697h10v0zM140 75q11 0 21 7t12 19l47 224v5q0 8 -5.5 13.5t-17.5 5.5h-1l-57 -274h1v0zM514 697l-145 -697
h-10h-91l145 697h10h91v0z" />
    <glyph glyph-name="bar" unicode="&#xdc;" horiz-adv-x="261" 
d="M319 334l-51 -247q-7 -35 -32 -59.5t-53 -27.5h-3.5h-3.5h-10h-147l145 697h10h91l-57 -275h56q23 0 40 -19.5t17 -49.5v-9t-2 -10v0zM217 326v4q0 8 -5 13.5t-15 5.5h-4l-57 -274h1q11 0 21 7t12 19l47 225v0z" />
    <glyph glyph-name="bar" unicode="&#x42c;" horiz-adv-x="261" 
d="M319 334l-51 -247q-7 -35 -32 -59.5t-53 -27.5h-3.5h-3.5h-10h-147l145 697h10h91l-57 -275h56q23 0 40 -19.5t17 -49.5v-9t-2 -10v0zM217 326v4q0 8 -5 13.5t-15 5.5h-4l-57 -274h1q11 0 21 7t12 19l47 225v0z" />
    <glyph glyph-name="braceright" unicode="&#xdd;" horiz-adv-x="271" 
d="M223 349h-57l15 73h57l37 181q1 2 1 4.5v4.5q0 7 -2.5 10.5t-7.5 4.5q-7 -1 -13 -7t-8 -17l-28 -137h-10h-90l33 159q6 30 32 54t59 24h10h78q23 0 39 -16.5t16 -41.5q0 -4 -0.5 -7.5t-1.5 -7.5l-118 -568q-1 -3 -2 -6.5t-3 -6.5q-7 -15 -23 -28.5t-33 -19.5
q-5 -1 -9.5 -1.5t-9.5 -0.5l-10 -1h-85q-26 1 -41.5 15.5t-15.5 36.5v6t1 6l48 230h10h90l-42 -202l-1 -5q1 -5 4.5 -8.5t7.5 -4.5q1 0 1.5 0.5t1.5 0.5q5 2 10 6t6 10l54 260v0z" />
    <glyph glyph-name="braceright" unicode="&#x42d;" horiz-adv-x="271" 
d="M223 349h-57l15 73h57l37 181q1 2 1 4.5v4.5q0 7 -2.5 10.5t-7.5 4.5q-7 -1 -13 -7t-8 -17l-28 -137h-10h-90l33 159q6 30 32 54t59 24h10h78q23 0 39 -16.5t16 -41.5q0 -4 -0.5 -7.5t-1.5 -7.5l-118 -568q-1 -3 -2 -6.5t-3 -6.5q-7 -15 -23 -28.5t-33 -19.5
q-5 -1 -9.5 -1.5t-9.5 -0.5l-10 -1h-85q-26 1 -41.5 15.5t-15.5 36.5v6t1 6l48 230h10h90l-42 -202l-1 -5q1 -5 4.5 -8.5t7.5 -4.5q1 0 1.5 0.5t1.5 0.5q5 2 10 6t6 10l54 260v0z" />
    <glyph glyph-name="asciitilde" unicode="&#xde;" horiz-adv-x="403" 
d="M165 68l59 281h-30l-73 -349h-10h-91l145 697h10h91l-57 -275h30l43 209q1 6 5 13t9 14q11 14 25.5 26t30.5 16q4 2 8 2.5t8 0.5h10h79q19 0 33 -13.5t20 -30.5q2 -5 3 -10t1 -10v-4t-1 -4l-117 -563q-1 -5 -3 -10.5l-4 -10.5q-9 -18 -28 -33t-49 -15l-10 -1h-81
q-29 1 -42.5 15.5t-15.5 32.5v3v4q0 4 0.5 7.5t1.5 7.5v0zM407 610v4q0 5 -3 8.5t-8 4.5q-6 -1 -10.5 -5t-6.5 -12l-108 -521l-1 -5q1 -4 4 -7.5t7 -4.5q6 1 11 5.5t7 11.5l108 521v0z" />
    <glyph glyph-name="asciitilde" unicode="&#x42e;" horiz-adv-x="403" 
d="M165 68l59 281h-30l-73 -349h-10h-91l145 697h10h91l-57 -275h30l43 209q1 6 5 13t9 14q11 14 25.5 26t30.5 16q4 2 8 2.5t8 0.5h10h79q19 0 33 -13.5t20 -30.5q2 -5 3 -10t1 -10v-4t-1 -4l-117 -563q-1 -5 -3 -10.5l-4 -10.5q-9 -18 -28 -33t-49 -15l-10 -1h-81
q-29 1 -42.5 15.5t-15.5 32.5v3v4q0 4 0.5 7.5t1.5 7.5v0zM407 610v4q0 5 -3 8.5t-8 4.5q-6 -1 -10.5 -5t-6.5 -12l-108 -521l-1 -5q1 -4 4 -7.5t7 -4.5q6 1 11 5.5t7 11.5l108 521v0z" />
    <glyph glyph-name="germandbls" unicode="&#xdf;" horiz-adv-x="271" 
d="M398 700l-146 -700h-10h-91l64 308q-14 0 -22.5 -4.5t-10.5 -12.5l-61 -291h-10h-91l60 289q1 5 3.5 11t6.5 12q6 10 17.5 20t26.5 18q-11 6 -19 19t-10 28v4v4v3v3q0 1 0.5 2.5t0.5 2.5l45 216q5 21 22 38t37 25q6 2 12.5 3.5t12.5 1.5h10h153v0zM205 404v-4
q0 -5 4.5 -8.5t14.5 -4.5q2 1 4.5 1h3.5l49 237q-16 0 -24 -4.5t-10 -13.5l-42 -203v0z" />
    <glyph glyph-name="germandbls" unicode="&#x42f;" horiz-adv-x="271" 
d="M398 700l-146 -700h-10h-91l64 308q-14 0 -22.5 -4.5t-10.5 -12.5l-61 -291h-10h-91l60 289q1 5 3.5 11t6.5 12q6 10 17.5 20t26.5 18q-11 6 -19 19t-10 28v4v4v3v3q0 1 0.5 2.5t0.5 2.5l45 216q5 21 22 38t37 25q6 2 12.5 3.5t12.5 1.5h10h153v0zM205 404v-4
q0 -5 4.5 -8.5t14.5 -4.5q2 1 4.5 1h3.5l49 237q-16 0 -24 -4.5t-10 -13.5l-42 -203v0z" />
    <glyph glyph-name="agrave" unicode="&#xe0;" horiz-adv-x="239" 
d="M68 233q0 2 0.5 4t1.5 4q6 28 15.5 44.5t33.5 31.5q15 8 36.5 17t52.5 20l29 143l1 5q-1 5 -4.5 7.5t-8.5 3.5q-6 -1 -11 -5t-7 -11l-25 -120h-10h-74l29 140q6 27 34 42t61 18h6h6h10q32 0 57 -12.5t24 -37.5v-2.5v-2.5t-0.5 -2.5t-0.5 -2.5l-107 -517h-10h-73l2 9
q-20 -6 -35.5 -9t-26.5 -3l-10 -1q-19 1 -28 9.5t-9 22.5v5t1 6l40 194v0zM150 76l37 181l1 5q-1 5 -4 8t-8 4q-6 -1 -11.5 -5.5t-7.5 -11.5l-37 -181v-4q0 -4 3.5 -7.5t7.5 -4.5q7 1 12.5 5.5t6.5 10.5v0z" />
    <glyph glyph-name="agrave" unicode="&#x430;" horiz-adv-x="239" 
d="M68 233q0 2 0.5 4t1.5 4q6 28 15.5 44.5t33.5 31.5q15 8 36.5 17t52.5 20l29 143l1 5q-1 5 -4.5 7.5t-8.5 3.5q-6 -1 -11 -5t-7 -11l-25 -120h-10h-74l29 140q6 27 34 42t61 18h6h6h10q32 0 57 -12.5t24 -37.5v-2.5v-2.5t-0.5 -2.5t-0.5 -2.5l-107 -517h-10h-73l2 9
q-20 -6 -35.5 -9t-26.5 -3l-10 -1q-19 1 -28 9.5t-9 22.5v5t1 6l40 194v0zM150 76l37 181l1 5q-1 5 -4 8t-8 4q-6 -1 -11.5 -5.5t-7.5 -11.5l-37 -181v-4q0 -4 3.5 -7.5t7.5 -4.5q7 1 12.5 5.5t6.5 10.5v0z" />
    <glyph glyph-name="K" unicode="&#xe1;" horiz-adv-x="239" 
d="M351 694l-13 -65h-10q-18 3 -33.5 5t-27.5 3q-18 -1 -28 -10t-15 -32l-7 -30q4 2 7.5 3.5t7.5 3.5q8 2 15.5 3.5t14.5 1.5h10q23 0 38.5 -13t15.5 -35v-4.5t-1 -5.5l-97 -468q-5 -26 -32 -39t-59 -15q-3 -1 -6.5 -1h-7.5l-10 -1q-31 1 -57 12t-26 35v4.5t1 4.5l110 529
q8 44 32.5 73t51.5 37q2 1 4 1.5t4 0.5q15 2 29.5 3.5t27.5 1.5h10h8.5t8.5 -1h8t9 -1q4 0 8.5 -0.5t8.5 -0.5v0zM236 497q2 7 -2 10.5t-9 4.5q-6 -1 -11 -4.5t-7 -10.5l-88 -424q-1 -7 2.5 -10.5t8.5 -5.5q6 1 11.5 5t6.5 11l88 424v0z" />
    <glyph glyph-name="K" unicode="&#x431;" horiz-adv-x="239" 
d="M351 694l-13 -65h-10q-18 3 -33.5 5t-27.5 3q-18 -1 -28 -10t-15 -32l-7 -30q4 2 7.5 3.5t7.5 3.5q8 2 15.5 3.5t14.5 1.5h10q23 0 38.5 -13t15.5 -35v-4.5t-1 -5.5l-97 -468q-5 -26 -32 -39t-59 -15q-3 -1 -6.5 -1h-7.5l-10 -1q-31 1 -57 12t-26 35v4.5t1 4.5l110 529
q8 44 32.5 73t51.5 37q2 1 4 1.5t4 0.5q15 2 29.5 3.5t27.5 1.5h10h8.5t8.5 -1h8t9 -1q4 0 8.5 -0.5t8.5 -0.5v0zM236 497q2 7 -2 10.5t-9 4.5q-6 -1 -11 -4.5t-7 -10.5l-88 -424q-1 -7 2.5 -10.5t8.5 -5.5q6 1 11.5 5t6.5 11l88 424v0z" />
    <glyph glyph-name="quotedbl" unicode="&#xe2;" horiz-adv-x="239" 
d="M245 300q13 -5 18.5 -15t6.5 -21v-2v-2v-2.5v-2.5q0 -2 -0.5 -3t-0.5 -3l-39 -187q0 -1 -0.5 -2.5t-0.5 -2.5q-6 -22 -25 -39.5t-49 -17.5h-10h-125l119 571h10h125q21 0 35.5 -15t14.5 -36v-2.5v-2.5t-0.5 -2.5t-0.5 -2.5l-33 -159q0 -2 -0.5 -4t-1.5 -4
q-5 -13 -15.5 -25t-27.5 -18v0zM127 62h2.5t2.5 1q7 1 12.5 6.5t6.5 12.5l35 167v4q0 7 -4.5 11.5t-11.5 4.5h-9l-43 -207h9v0zM236 490v3q0 6 -4.5 11t-10.5 5h-10l-37 -178h9h2.5t2.5 1q5 2 10 6t7 9q1 1 1.5 2t0.5 2l29 139v0z" />
    <glyph glyph-name="quotedbl" unicode="&#x432;" horiz-adv-x="239" 
d="M245 300q13 -5 18.5 -15t6.5 -21v-2v-2v-2.5v-2.5q0 -2 -0.5 -3t-0.5 -3l-39 -187q0 -1 -0.5 -2.5t-0.5 -2.5q-6 -22 -25 -39.5t-49 -17.5h-10h-125l119 571h10h125q21 0 35.5 -15t14.5 -36v-2.5v-2.5t-0.5 -2.5t-0.5 -2.5l-33 -159q0 -2 -0.5 -4t-1.5 -4
q-5 -13 -15.5 -25t-27.5 -18v0zM127 62h2.5t2.5 1q7 1 12.5 6.5t6.5 12.5l35 167v4q0 7 -4.5 11.5t-11.5 4.5h-9l-43 -207h9v0zM236 490v3q0 6 -4.5 11t-10.5 5h-10l-37 -178h9h2.5t2.5 1q5 2 10 6t7 9q1 1 1.5 2t0.5 2l29 139v0z" />
    <glyph glyph-name="atilde" unicode="&#xe3;" horiz-adv-x="152" 
d="M19 0l119 571h10h120l-13 -62h-46l-106 -509h-10h-74v0z" />
    <glyph glyph-name="atilde" unicode="&#x433;" horiz-adv-x="152" 
d="M19 0l119 571h10h120l-13 -62h-46l-106 -509h-10h-74v0z" />
    <glyph glyph-name="adieresis" unicode="&#xe4;" horiz-adv-x="250" 
d="M53 107l97 464h10h186l-106 -509h19l-29 -137h-10h-74l16 75h-78l-16 -75h-10h-74l29 139q19 2 27.5 12.5t12.5 30.5v0zM137 108q-2 -12 -7 -23.5t-15 -22.5h42l93 447h-29l-84 -401v0z" />
    <glyph glyph-name="adieresis" unicode="&#x434;" horiz-adv-x="250" 
d="M53 107l97 464h10h186l-106 -509h19l-29 -137h-10h-74l16 75h-78l-16 -75h-10h-74l29 139q19 2 27.5 12.5t12.5 30.5v0zM137 108q-2 -12 -7 -23.5t-15 -22.5h42l93 447h-29l-84 -401v0z" />
    <glyph glyph-name="yright" unicode="&#xe5;" horiz-adv-x="239" 
d="M127 517q6 28 34.5 43t61.5 17h5.5h4.5h10q32 0 57 -12.5t25 -37.5v-2.5v-2.5t-0.5 -2.5t-0.5 -2.5l-51 -248h-113l-41 -196q-1 -7 2.5 -10.5t8.5 -5.5q6 1 11.5 5t6.5 11l28 132h10h74l-32 -153q-5 -25 -31.5 -38.5t-57.5 -16.5q-4 -1 -8.5 -1h-8.5l-10 -1
q-32 1 -57 12.5t-25 35.5v4.5t1 4.5l96 465v0zM202 331l34 166q2 7 -2 10.5t-9 4.5q-6 -1 -11 -4.5t-7 -10.5l-34 -166h29v0z" />
    <glyph glyph-name="yright" unicode="&#x435;" horiz-adv-x="239" 
d="M127 517q6 28 34.5 43t61.5 17h5.5h4.5h10q32 0 57 -12.5t25 -37.5v-2.5v-2.5t-0.5 -2.5t-0.5 -2.5l-51 -248h-113l-41 -196q-1 -7 2.5 -10.5t8.5 -5.5q6 1 11.5 5t6.5 11l28 132h10h74l-32 -153q-5 -25 -31.5 -38.5t-57.5 -16.5q-4 -1 -8.5 -1h-8.5l-10 -1
q-32 1 -57 12.5t-25 35.5v4.5t1 4.5l96 465v0zM202 331l34 166q2 7 -2 10.5t-9 4.5q-6 -1 -11 -4.5t-7 -10.5l-34 -166h29v0z" />
    <glyph glyph-name="guilsinglright" unicode="&#xe6;" horiz-adv-x="348" 
d="M261 571h73l-36 -173l65 173h10h79l-104 -247l-4 -324h-10h-81l11 239l-49 -239h-10h-73l49 239l-87 -239h-10h-82l131 324v247h10h79l-7 -173l36 173h10v0z" />
    <glyph glyph-name="guilsinglright" unicode="&#x436;" horiz-adv-x="348" 
d="M261 571h73l-36 -173l65 173h10h79l-104 -247l-4 -324h-10h-81l11 239l-49 -239h-10h-73l49 239l-87 -239h-10h-82l131 324v247h10h79l-7 -173l36 173h10v0z" />
    <glyph glyph-name="florin" unicode="&#xe7;" horiz-adv-x="239" 
d="M324 517l-34 -166q0 -2 -1 -4t-1 -4q-5 -13 -16 -25t-28 -18q13 -5 19 -15t7 -21v-2v-2v-2.5v-2.5q0 -2 -0.5 -3t-0.5 -3l-41 -198q-5 -25 -31.5 -38t-57.5 -16q-4 -1 -8.5 -1h-8.5l-10 -1q-31 1 -57 12.5t-26 35.5v4t1 4l1 1l40 193h10h74l-36 -172q-1 -7 2.5 -10.5
t8.5 -5.5q6 1 11.5 5t6.5 11l37 176v4q0 7 -4 11.5t-12 4.5h-19l13 62h19q7 0 13.5 5t8.5 11q1 1 1.5 2t0.5 2l30 146q2 7 -2 10.5t-9 4.5q-6 -1 -11 -4.5t-7 -10.5l-29 -143h-10h-74l33 163v1q5 26 32 40t59 16q3 1 6.5 1h7.5h10q32 0 57.5 -12t25.5 -36v-4.5t-1 -4.5v-1v0
z" />
    <glyph glyph-name="florin" unicode="&#x437;" horiz-adv-x="239" 
d="M324 517l-34 -166q0 -2 -1 -4t-1 -4q-5 -13 -16 -25t-28 -18q13 -5 19 -15t7 -21v-2v-2v-2.5v-2.5q0 -2 -0.5 -3t-0.5 -3l-41 -198q-5 -25 -31.5 -38t-57.5 -16q-4 -1 -8.5 -1h-8.5l-10 -1q-31 1 -57 12.5t-26 35.5v4t1 4l1 1l40 193h10h74l-36 -172q-1 -7 2.5 -10.5
t8.5 -5.5q6 1 11.5 5t6.5 11l37 176v4q0 7 -4 11.5t-12 4.5h-19l13 62h19q7 0 13.5 5t8.5 11q1 1 1.5 2t0.5 2l30 146q2 7 -2 10.5t-9 4.5q-6 -1 -11 -4.5t-7 -10.5l-29 -143h-10h-74l33 163v1q5 26 32 40t59 16q3 1 6.5 1h7.5h10q32 0 57.5 -12t25.5 -36v-4.5t-1 -4.5v-1v0
z" />
    <glyph glyph-name="comma" unicode="&#xe8;" horiz-adv-x="239" 
d="M20 0l119 571h10h64l-56 -268l96 268h10h73l-119 -571h-10h-63l58 278l-97 -278h-10h-75v0z" />
    <glyph glyph-name="comma" unicode="&#x438;" horiz-adv-x="239" 
d="M20 0l119 571h10h64l-56 -268l96 268h10h73l-119 -571h-10h-63l58 278l-97 -278h-10h-75v0z" />
    <glyph glyph-name="L" unicode="&#xe9;" horiz-adv-x="239" 
d="M21 0l119 571h10h64l-56 -268l95 268h10h74l-119 -571h-10h-64l58 278l-97 -278h-10h-74v0zM324 697l-14 -68h-10h-113l14 68h10l52 -10l51 10h10v0z" />
    <glyph glyph-name="L" unicode="&#x439;" horiz-adv-x="239" 
d="M21 0l119 571h10h64l-56 -268l95 268h10h74l-119 -571h-10h-64l58 278l-97 -278h-10h-74v0zM324 697l-14 -68h-10h-113l14 68h10l52 -10l51 10h10v0z" />
    <glyph glyph-name="asterisk" unicode="&#xea;" horiz-adv-x="239" 
d="M94 0h-74l119 571h10h74l-36 -173l65 173h10h79l-105 -247l-3 -324h-10h-81l11 239l-49 -239h-10v0z" />
    <glyph glyph-name="asterisk" unicode="&#x43a;" horiz-adv-x="239" 
d="M94 0h-74l119 571h10h74l-36 -173l65 173h10h79l-105 -247l-3 -324h-10h-81l11 239l-49 -239h-10v0z" />
    <glyph glyph-name="edieresis" unicode="&#xeb;" horiz-adv-x="250" 
d="M25 62h1.5h1.5q1 -1 1.5 -1h0.5q8 2 13 9t9 26l99 475h10h187l-119 -571h-10h-74l106 509h-29l-89 -426q-8 -40 -32 -63t-60 -23l-10 -1q-4 1 -7.5 1.5t-6.5 0.5q-2 0 -3 0.5t-2 0.5q-3 0 -5 0.5t-5 0.5l13 62h10v0z" />
    <glyph glyph-name="edieresis" unicode="&#x43b;" horiz-adv-x="250" 
d="M25 62h1.5h1.5q1 -1 1.5 -1h0.5q8 2 13 9t9 26l99 475h10h187l-119 -571h-10h-74l106 509h-29l-89 -426q-8 -40 -32 -63t-60 -23l-10 -1q-4 1 -7.5 1.5t-6.5 0.5q-2 0 -3 0.5t-2 0.5q-3 0 -5 0.5t-5 0.5l13 62h10v0z" />
    <glyph glyph-name="igrave" unicode="&#xec;" horiz-adv-x="305" 
d="M132 0l18 275l-57 -275h-10h-64l119 571h10h75l-10 -277l106 277h10h75l-119 -571h-10h-64l57 275l-96 -275h-10h-30v0z" />
    <glyph glyph-name="igrave" unicode="&#x43c;" horiz-adv-x="305" 
d="M132 0l18 275l-57 -275h-10h-64l119 571h10h75l-10 -277l106 277h10h75l-119 -571h-10h-64l57 275l-96 -275h-10h-30v0z" />
    <glyph glyph-name="ellipsis" unicode="&#xed;" horiz-adv-x="239" 
d="M202 331l50 240h10h74l-119 -571h-10h-74l56 269h-29l-56 -269h-10h-75l119 571h10h75l-50 -240h29v0z" />
    <glyph glyph-name="ellipsis" unicode="&#x43d;" horiz-adv-x="239" 
d="M202 331l50 240h10h74l-119 -571h-10h-74l56 269h-29l-56 -269h-10h-75l119 571h10h75l-50 -240h29v0z" />
    <glyph glyph-name="percent" unicode="&#xee;" horiz-adv-x="239" 
d="M324 517l-96 -465q-5 -24 -31.5 -38t-57.5 -16q-4 -1 -8.5 -1h-8.5l-10 -1q-32 1 -57 12.5t-25 35.5v4t1 4l96 465q6 28 34.5 43t61.5 17h5.5h4.5h10q32 0 57 -12.5t25 -37.5v-2.5v-2.5t-0.5 -2.5t-0.5 -2.5v0zM236 497q2 7 -2 10.5t-9 4.5q-6 -1 -11 -4.5t-7 -10.5
l-88 -424q-1 -7 2.5 -10.5t8.5 -5.5q6 1 11.5 5t6.5 11l88 424v0z" />
    <glyph glyph-name="percent" unicode="&#x43e;" horiz-adv-x="239" 
d="M324 517l-96 -465q-5 -24 -31.5 -38t-57.5 -16q-4 -1 -8.5 -1h-8.5l-10 -1q-32 1 -57 12.5t-25 35.5v4t1 4l96 465q6 28 34.5 43t61.5 17h5.5h4.5h10q32 0 57 -12.5t25 -37.5v-2.5v-2.5t-0.5 -2.5t-0.5 -2.5v0zM236 497q2 7 -2 10.5t-9 4.5q-6 -1 -11 -4.5t-7 -10.5
l-88 -424q-1 -7 2.5 -10.5t8.5 -5.5q6 1 11.5 5t6.5 11l88 424v0z" />
    <glyph glyph-name="C" unicode="&#xef;" horiz-adv-x="239" 
d="M210 509l-106 -509h-10h-75l119 571h10h188l-119 -571h-10h-74l106 509h-29v0z" />
    <glyph glyph-name="C" unicode="&#x43f;" horiz-adv-x="239" 
d="M210 509l-106 -509h-10h-75l119 571h10h188l-119 -571h-10h-74l106 509h-29v0z" />
    <glyph glyph-name="eth" unicode="&#xf0;" horiz-adv-x="239" 
d="M228 53q-5 -25 -23 -40.5t-44 -15.5l-10 -1q-7 1 -15.5 2.5t-17.5 4.5l-5 2.5t-6 3.5l-30 -146h-10h-75l147 708h10h75l-2 -11q20 7 35.5 10.5t26.5 3.5h10q17 0 25.5 -7.5t8.5 -24.5q0 -4 -0.5 -8.5t-1.5 -9.5l-98 -471v0zM208 493l-87 -417v-4q0 -4 3 -7.5t7 -4.5h1.5
t1.5 1q5 1 10 5t6 10l87 417v4q0 6 -3.5 10t-8.5 5q-1 0 -1.5 -0.5t-1.5 -0.5q-5 -2 -9 -6.5t-5 -11.5v0z" />
    <glyph glyph-name="eth" unicode="&#x440;" horiz-adv-x="239" 
d="M228 53q-5 -25 -23 -40.5t-44 -15.5l-10 -1q-7 1 -15.5 2.5t-17.5 4.5l-5 2.5t-6 3.5l-30 -146h-10h-75l147 708h10h75l-2 -11q20 7 35.5 10.5t26.5 3.5h10q17 0 25.5 -7.5t8.5 -24.5q0 -4 -0.5 -8.5t-1.5 -9.5l-98 -471v0zM208 493l-87 -417v-4q0 -4 3 -7.5t7 -4.5h1.5
t1.5 1q5 1 10 5t6 10l87 417v4q0 6 -3.5 10t-8.5 5q-1 0 -1.5 -0.5t-1.5 -0.5q-5 -2 -9 -6.5t-5 -11.5v0z" />
    <glyph glyph-name="quotedblleft" unicode="&#xf1;" horiz-adv-x="239" 
d="M127 517q6 28 34.5 43t61.5 17h5.5h4.5h10q32 0 57 -12.5t25 -37.5v-2.5v-2.5t-0.5 -2.5t-0.5 -2.5l-36 -174h-10h-74l32 154q2 7 -2 10.5t-9 4.5q-6 -1 -11 -4.5t-7 -10.5l-88 -424q-1 -7 2.5 -10.5t8.5 -5.5q6 1 11.5 5t6.5 11l36 172h10h74l-40 -193
q-5 -25 -31.5 -38.5t-57.5 -16.5q-4 -1 -8.5 -1h-8.5l-10 -1q-32 1 -57 12.5t-25 35.5v4.5t1 4.5l96 465v0z" />
    <glyph glyph-name="quotedblleft" unicode="&#x441;" horiz-adv-x="239" 
d="M127 517q6 28 34.5 43t61.5 17h5.5h4.5h10q32 0 57 -12.5t25 -37.5v-2.5v-2.5t-0.5 -2.5t-0.5 -2.5l-36 -174h-10h-74l32 154q2 7 -2 10.5t-9 4.5q-6 -1 -11 -4.5t-7 -10.5l-88 -424q-1 -7 2.5 -10.5t8.5 -5.5q6 1 11.5 5t6.5 11l36 172h10h74l-40 -193
q-5 -25 -31.5 -38.5t-57.5 -16.5q-4 -1 -8.5 -1h-8.5l-10 -1q-32 1 -57 12.5t-25 35.5v4.5t1 4.5l96 465v0z" />
    <glyph glyph-name="two" unicode="&#xf2;" horiz-adv-x="173" 
d="M44 0l106 509h-40l13 62h10h154l-13 -62h-40l-106 -509h-10h-74v0z" />
    <glyph glyph-name="two" unicode="&#x442;" horiz-adv-x="173" 
d="M44 0l106 509h-40l13 62h10h154l-13 -62h-40l-106 -509h-10h-74v0z" />
    <glyph glyph-name="three" unicode="&#xf3;" horiz-adv-x="217" 
d="M71 -24l56 595h10h76l-49 -323l82 323h10h75l-185 -609q-18 -56 -56 -79t-126 -23l-11 -1l12 61q55 1 78 14.5t27 35.5l1 6v0z" />
    <glyph glyph-name="three" unicode="&#x443;" horiz-adv-x="217" 
d="M71 -24l56 595h10h76l-49 -323l82 323h10h75l-185 -609q-18 -56 -56 -79t-126 -23l-11 -1l12 61q55 1 78 14.5t27 35.5l1 6v0z" />
    <glyph glyph-name="ocircumflex" unicode="&#xf4;" horiz-adv-x="348" 
d="M103 -135l29 140q-14 -6 -26 -8.5t-22 -2.5l-10 -1q-22 1 -34.5 13.5t-12.5 32.5q0 2 0.5 3.5t0.5 3.5t0.5 3.5t0.5 3.5l98 471q5 25 19.5 38t39.5 13h10q11 0 24 -2.5t29 -7.5l28 138h10h74l-28 -138q17 5 31 7.5t24 2.5h10q21 0 31 -9t10 -26q0 -4 -0.5 -7.5t-1.5 -8.5
l-98 -471q-5 -25 -24 -42t-45 -17l-10 -1q-10 1 -21 4t-23 9l-29 -141h-10h-74v0zM234 493q2 7 -2.5 11t-9.5 5q-6 -1 -10.5 -5t-6.5 -11l-87 -417v-4q0 -4 3 -7.5t7 -4.5h1.5t1.5 1q5 1 10 5t6 10l87 417v0zM231 76v-4q0 -4 3 -7.5t7 -4.5h1.5t1.5 1q5 1 10 5t6 10l87 417
q2 7 -2.5 11t-9.5 5q-6 -1 -10.5 -5t-6.5 -11l-87 -417v0z" />
    <glyph glyph-name="ocircumflex" unicode="&#x444;" horiz-adv-x="348" 
d="M103 -135l29 140q-14 -6 -26 -8.5t-22 -2.5l-10 -1q-22 1 -34.5 13.5t-12.5 32.5q0 2 0.5 3.5t0.5 3.5t0.5 3.5t0.5 3.5l98 471q5 25 19.5 38t39.5 13h10q11 0 24 -2.5t29 -7.5l28 138h10h74l-28 -138q17 5 31 7.5t24 2.5h10q21 0 31 -9t10 -26q0 -4 -0.5 -7.5t-1.5 -8.5
l-98 -471q-5 -25 -24 -42t-45 -17l-10 -1q-10 1 -21 4t-23 9l-29 -141h-10h-74v0zM234 493q2 7 -2.5 11t-9.5 5q-6 -1 -10.5 -5t-6.5 -11l-87 -417v-4q0 -4 3 -7.5t7 -4.5h1.5t1.5 1q5 1 10 5t6 10l87 417v0zM231 76v-4q0 -4 3 -7.5t7 -4.5h1.5t1.5 1q5 1 10 5t6 10l87 417
q2 7 -2.5 11t-9.5 5q-6 -1 -10.5 -5t-6.5 -11l-87 -417v0z" />
    <glyph glyph-name="otilde" unicode="&#xf5;" horiz-adv-x="207" 
d="M150 230l-64 -230h-10h-74l100 310l25 261h10h72l-25 -181l50 181h10h73l-85 -261l-28 -310h-10h-74l30 230v0z" />
    <glyph glyph-name="otilde" unicode="&#x445;" horiz-adv-x="207" 
d="M150 230l-64 -230h-10h-74l100 310l25 261h10h72l-25 -181l50 181h10h73l-85 -261l-28 -310h-10h-74l30 230v0z" />
    <glyph glyph-name="odieresis" unicode="&#xf6;" horiz-adv-x="239" 
d="M247 62l-29 -137h-10h-75l16 75h-129l119 571h10h75l-106 -509h29l106 509h10h73l-106 -509h17v0z" />
    <glyph glyph-name="odieresis" unicode="&#x446;" horiz-adv-x="239" 
d="M247 62l-29 -137h-10h-75l16 75h-129l119 571h10h75l-106 -509h29l106 509h10h73l-106 -509h17v0z" />
    <glyph glyph-name="divide" unicode="&#xf7;" horiz-adv-x="228" 
d="M179 269l63 302h10h74l-119 -571h-10h-74l41 199q-14 -7 -26.5 -10t-22.5 -3h-10q-22 0 -34 13t-12 32q0 4 0.5 7.5t1.5 7.5l68 325h10h74l-63 -302v-4q0 -4 3 -7.5t7 -4.5h1.5t1.5 1q5 1 10 5t6 10v0z" />
    <glyph glyph-name="divide" unicode="&#x447;" horiz-adv-x="228" 
d="M179 269l63 302h10h74l-119 -571h-10h-74l41 199q-14 -7 -26.5 -10t-22.5 -3h-10q-22 0 -34 13t-12 32q0 4 0.5 7.5t1.5 7.5l68 325h10h74l-63 -302v-4q0 -4 3 -7.5t7 -4.5h1.5t1.5 1q5 1 10 5t6 10v0z" />
    <glyph glyph-name="oslash" unicode="&#xf8;" horiz-adv-x="348" 
d="M318 0h-300l119 571h10h74l-106 -509h29l106 509h10h74l-106 -509h29l106 509h10h74l-119 -571h-10v0z" />
    <glyph glyph-name="oslash" unicode="&#x448;" horiz-adv-x="348" 
d="M318 0h-300l119 571h10h74l-106 -509h29l106 509h10h74l-106 -509h29l106 509h10h74l-119 -571h-10v0z" />
    <glyph glyph-name="question" unicode="&#xf9;" horiz-adv-x="348" 
d="M342 62h18l-29 -137h-10h-74l16 75h-245l119 571h10h75l-106 -509h29l106 509h10h73l-106 -509h29l106 509h10h75l-106 -509v0z" />
    <glyph glyph-name="question" unicode="&#x449;" horiz-adv-x="348" 
d="M342 62h18l-29 -137h-10h-74l16 75h-245l119 571h10h75l-106 -509h29l106 509h10h73l-106 -509h29l106 509h10h75l-106 -509v0z" />
    <glyph glyph-name="A" unicode="&#xfa;" horiz-adv-x="239" 
d="M234 571l-40 -189h32q32 0 49.5 -16t17.5 -42q0 -4 -0.5 -7.5t-1.5 -8.5l-48 -230q-7 -34 -31 -56t-65 -22h-10h-106l106 509h-36l13 62h10h110v0zM137 62h2.5t2.5 1q7 1 12.5 6.5t6.5 12.5l45 215v4q0 8 -5 13.5t-13 5.5h-6l-54 -258h9v0z" />
    <glyph glyph-name="A" unicode="&#x44a;" horiz-adv-x="239" 
d="M234 571l-40 -189h32q32 0 49.5 -16t17.5 -42q0 -4 -0.5 -7.5t-1.5 -8.5l-48 -230q-7 -34 -31 -56t-65 -22h-10h-106l106 509h-36l13 62h10h110v0zM137 62h2.5t2.5 1q7 1 12.5 6.5t6.5 12.5l45 215v4q0 8 -5 13.5t-13 5.5h-6l-54 -258h9v0z" />
    <glyph glyph-name="slash" unicode="&#xfb;" horiz-adv-x="337" 
d="M222 571l-40 -189h32q32 0 50 -16t18 -42q0 -4 -0.5 -7.5t-1.5 -8.5l-48 -230q-7 -34 -31.5 -56t-65.5 -22h-10h-106l119 571h10h74v0zM116 62h9h2.5t2.5 1q7 1 12.5 6.5t6.5 12.5l45 215v4q0 8 -4.5 13.5t-12.5 5.5h-7l-54 -258v0zM233 0l119 571h10h74l-119 -571h-10
h-74v0z" />
    <glyph glyph-name="slash" unicode="&#x44b;" horiz-adv-x="337" 
d="M222 571l-40 -189h32q32 0 50 -16t18 -42q0 -4 -0.5 -7.5t-1.5 -8.5l-48 -230q-7 -34 -31.5 -56t-65.5 -22h-10h-106l119 571h10h74v0zM116 62h9h2.5t2.5 1q7 1 12.5 6.5t6.5 12.5l45 215v4q0 8 -4.5 13.5t-12.5 5.5h-7l-54 -258v0zM233 0l119 571h10h74l-119 -571h-10
h-74v0z" />
    <glyph glyph-name="udieresis" unicode="&#xfc;" horiz-adv-x="228" 
d="M215 382q32 0 50 -16t18 -42q0 -4 -0.5 -7.5t-1.5 -8.5l-48 -230q-7 -34 -31.5 -56t-65.5 -22h-10h-106l119 571h10h74l-40 -189h32v0zM177 320h-6l-54 -258h9h2.5t2.5 1q7 1 12.5 6.5t6.5 12.5l45 215v4q0 8 -5 13.5t-13 5.5v0z" />
    <glyph glyph-name="udieresis" unicode="&#x44c;" horiz-adv-x="228" 
d="M215 382q32 0 50 -16t18 -42q0 -4 -0.5 -7.5t-1.5 -8.5l-48 -230q-7 -34 -31.5 -56t-65.5 -22h-10h-106l119 571h10h74l-40 -189h32v0zM177 320h-6l-54 -258h9h2.5t2.5 1q7 1 12.5 6.5t6.5 12.5l45 215v4q0 8 -5 13.5t-13 5.5v0z" />
    <glyph glyph-name="period" unicode="&#xfd;" horiz-adv-x="239" 
d="M202 331l34 166q2 7 -2 10.5t-9 4.5q-6 -1 -11 -4.5t-7 -10.5l-26 -127h-10h-74l31 148q5 26 32 40t59 16q3 1 6.5 1h7.5h10q32 0 57.5 -12t25.5 -36v-4.5t-1 -4.5l-97 -466q-5 -25 -31.5 -38.5t-57.5 -16.5q-4 -1 -8.5 -1h-8.5l-10 -1q-32 1 -57 12.5t-25 35.5v4.5
t1 4.5l34 165h10h74l-30 -144q-1 -7 2.5 -10.5t8.5 -5.5q6 1 11.5 5t6.5 11l41 196h-39l13 62h39v0z" />
    <glyph glyph-name="period" unicode="&#x44d;" horiz-adv-x="239" 
d="M202 331l34 166q2 7 -2 10.5t-9 4.5q-6 -1 -11 -4.5t-7 -10.5l-26 -127h-10h-74l31 148q5 26 32 40t59 16q3 1 6.5 1h7.5h10q32 0 57.5 -12t25.5 -36v-4.5t-1 -4.5l-97 -466q-5 -25 -31.5 -38.5t-57.5 -16.5q-4 -1 -8.5 -1h-8.5l-10 -1q-32 1 -57 12.5t-25 35.5v4.5
t1 4.5l34 165h10h74l-30 -144q-1 -7 2.5 -10.5t8.5 -5.5q6 1 11.5 5t6.5 11l41 196h-39l13 62h39v0z" />
    <glyph glyph-name="thorn" unicode="&#xfe;" horiz-adv-x="348" 
d="M437 518l-97 -465q-5 -25 -31.5 -39t-57.5 -16q-4 -1 -8.5 -1h-8.5l-10 -1q-32 1 -57 12.5t-25 35.5v4.5t1 4.5l45 216h-29l-56 -269h-10h-75l119 571h10h75l-50 -240h29l39 187q6 27 34.5 41t61.5 16h4.5h4.5h10q32 0 57.5 -12t25.5 -36v-4.5t-1 -4.5v0zM260 74l89 424
q2 7 -2.5 10.5t-9.5 4.5q-6 -1 -10.5 -4.5t-6.5 -10.5l-89 -424q-1 -7 2.5 -11t8.5 -6q6 2 11.5 6t6.5 11v0z" />
    <glyph glyph-name="thorn" unicode="&#x44e;" horiz-adv-x="348" 
d="M437 518l-97 -465q-5 -25 -31.5 -39t-57.5 -16q-4 -1 -8.5 -1h-8.5l-10 -1q-32 1 -57 12.5t-25 35.5v4.5t1 4.5l45 216h-29l-56 -269h-10h-75l119 571h10h75l-50 -240h29l39 187q6 27 34.5 41t61.5 16h4.5h4.5h10q32 0 57.5 -12t25.5 -36v-4.5t-1 -4.5v0zM260 74l89 424
q2 7 -2.5 10.5t-9.5 4.5q-6 -1 -10.5 -4.5t-6.5 -10.5l-89 -424q-1 -7 2.5 -11t8.5 -6q6 2 11.5 6t6.5 11v0z" />
    <glyph glyph-name="ydieresis" unicode="&#xff;" horiz-adv-x="239" 
d="M126 510q4 20 21.5 36.5t37.5 22.5q4 1 8 1.5t8 0.5h10h125l-119 -571h-10h-74l56 269h-9q-8 0 -15 -6t-9 -14l-52 -249h-10h-74l52 249q1 3 2 7t3 7q5 12 15.5 22t24.5 15q-13 5 -19 16t-6 24v5t1 6l33 159v0zM206 490l-29 -139v-3q0 -7 4.5 -12t11.5 -5h9l37 178h-10
q-2 0 -3.5 -0.5t-3.5 -0.5q-4 -3 -8.5 -7t-6.5 -9l-0.5 -0.5t-0.5 -1.5v0z" />
    <glyph glyph-name="ydieresis" unicode="&#x44f;" horiz-adv-x="239" 
d="M126 510q4 20 21.5 36.5t37.5 22.5q4 1 8 1.5t8 0.5h10h125l-119 -571h-10h-74l56 269h-9q-8 0 -15 -6t-9 -14l-52 -249h-10h-74l52 249q1 3 2 7t3 7q5 12 15.5 22t24.5 15q-13 5 -19 16t-6 24v5t1 6l33 159v0zM206 490l-29 -139v-3q0 -7 4.5 -12t11.5 -5h9l37 178h-10
q-2 0 -3.5 -0.5t-3.5 -0.5q-4 -3 -8.5 -7t-6.5 -9l-0.5 -0.5t-0.5 -1.5v0z" />
    <glyph glyph-name="amacron" unicode="&#x101;" 
 />
    <glyph glyph-name="OE" unicode="&#x152;" 
d="M148 300h-35q-13 8 -19 20.5t-6 25.5v3.5t1 3.5q0 2 0.5 3.5t0.5 3.5q0 1 0.5 2.5t0.5 3.5q5 16 17 30.5t30 23.5h10h70q14 -7 20 -19.5t6 -26.5q0 -2 -0.5 -4t-0.5 -3q0 -2 -0.5 -3.5t-0.5 -3.5q0 -1 -0.5 -2.5t-0.5 -3.5q-5 -16 -17 -30.5t-31 -23.5h-10h-35v0z" />
    <glyph glyph-name="glyph258" unicode="&#x153;" 
d="M148 300h-35q-13 8 -19 20.5t-6 25.5v3.5t1 3.5q0 2 0.5 3.5t0.5 3.5q0 1 0.5 2.5t0.5 3.5q5 16 17 30.5t30 23.5h10h70q14 -7 20 -19.5t6 -26.5q0 -2 -0.5 -4t-0.5 -3q0 -2 -0.5 -3.5t-0.5 -3.5q0 -1 -0.5 -2.5t-0.5 -3.5q-5 -16 -17 -30.5t-31 -23.5h-10h-35v0z" />
    <glyph glyph-name="perthousand" unicode="&#x160;" 
d="M148 300h-35q-13 8 -19 20.5t-6 25.5v3.5t1 3.5q0 2 0.5 3.5t0.5 3.5q0 1 0.5 2.5t0.5 3.5q5 16 17 30.5t30 23.5h10h70q14 -7 20 -19.5t6 -26.5q0 -2 -0.5 -4t-0.5 -3q0 -2 -0.5 -3.5t-0.5 -3.5q0 -1 -0.5 -2.5t-0.5 -3.5q-5 -16 -17 -30.5t-31 -23.5h-10h-35v0z" />
    <glyph glyph-name="eight" unicode="&#x161;" 
d="M148 300h-35q-13 8 -19 20.5t-6 25.5v3.5t1 3.5q0 2 0.5 3.5t0.5 3.5q0 1 0.5 2.5t0.5 3.5q5 16 17 30.5t30 23.5h10h70q14 -7 20 -19.5t6 -26.5q0 -2 -0.5 -4t-0.5 -3q0 -2 -0.5 -3.5t-0.5 -3.5q0 -1 -0.5 -2.5t-0.5 -3.5q-5 -16 -17 -30.5t-31 -23.5h-10h-35v0z" />
    <glyph glyph-name="greater" unicode="&#x192;" 
d="M148 300h-35q-13 8 -19 20.5t-6 25.5v3.5t1 3.5q0 2 0.5 3.5t0.5 3.5q0 1 0.5 2.5t0.5 3.5q5 16 17 30.5t30 23.5h10h70q14 -7 20 -19.5t6 -26.5q0 -2 -0.5 -4t-0.5 -3q0 -2 -0.5 -3.5t-0.5 -3.5q0 -1 -0.5 -2.5t-0.5 -3.5q-5 -16 -17 -30.5t-31 -23.5h-10h-35v0z" />
    <glyph glyph-name="glyph237" unicode="&#x2c6;" 
d="M148 300h-35q-13 8 -19 20.5t-6 25.5v3.5t1 3.5q0 2 0.5 3.5t0.5 3.5q0 1 0.5 2.5t0.5 3.5q5 16 17 30.5t30 23.5h10h70q14 -7 20 -19.5t6 -26.5q0 -2 -0.5 -4t-0.5 -3q0 -2 -0.5 -3.5t-0.5 -3.5q0 -1 -0.5 -2.5t-0.5 -3.5q-5 -16 -17 -30.5t-31 -23.5h-10h-35v0z" />
    <glyph glyph-name="seven" unicode="&#x2dc;" 
d="M148 300h-35q-13 8 -19 20.5t-6 25.5v3.5t1 3.5q0 2 0.5 3.5t0.5 3.5q0 1 0.5 2.5t0.5 3.5q5 16 17 30.5t30 23.5h10h70q14 -7 20 -19.5t6 -26.5q0 -2 -0.5 -4t-0.5 -3q0 -2 -0.5 -3.5t-0.5 -3.5q0 -1 -0.5 -2.5t-0.5 -3.5q-5 -16 -17 -30.5t-31 -23.5h-10h-35v0z" />
    <glyph glyph-name="dollar" unicode="&#x2013;" horiz-adv-x="283" 
d="M348 412l-16 -75h-10h-233l16 75h10h233v0z" />
    <glyph glyph-name="numbersign" unicode="&#x2014;" horiz-adv-x="370" 
d="M433 412l-16 -75h-10h-318l16 75h10h318v0z" />
    <glyph glyph-name="four" unicode="&#x2018;" horiz-adv-x="120" 
d="M185 477h-66l31 149q1 3 2 7t2 7q10 23 31 42t47 20h10l-11 -51q-13 -4 -18.5 -11t-9.5 -23q-2 -4 -3 -9t-2 -11l20 -12l-23 -108h-10v0z" />
    <glyph glyph-name="quoteright" unicode="&#x2019;" horiz-adv-x="120" 
d="M211 554q-1 -3 -2 -7t-2 -7q-9 -23 -30 -42t-48 -20h-10l11 51q13 4 18.5 11t9.5 23q2 4 3 9t2 11l-19 12l22 108h10h66l-31 -149v0z" />
    <glyph glyph-name="parenleft" unicode="&#x201a;" 
d="M148 300h-35q-13 8 -19 20.5t-6 25.5v3.5t1 3.5q0 2 0.5 3.5t0.5 3.5q0 1 0.5 2.5t0.5 3.5q5 16 17 30.5t30 23.5h10h70q14 -7 20 -19.5t6 -26.5q0 -2 -0.5 -4t-0.5 -3q0 -2 -0.5 -3.5t-0.5 -3.5q0 -1 -0.5 -2.5t-0.5 -3.5q-5 -16 -17 -30.5t-31 -23.5h-10h-35v0z" />
    <glyph glyph-name="oe" unicode="&#x201c;" horiz-adv-x="228" 
d="M185 477h-66l31 149q1 3 2 7t2 7q10 23 31 42t47 20h10l-11 -51q-13 -4 -18.5 -11t-9.5 -23q-2 -4 -3 -9t-2 -11l20 -12l-23 -108h-10v0zM220 477l31 149q1 3 2 7t2 7q10 23 31.5 42t47.5 20h10l-11 -51q-14 -4 -19.5 -11t-10.5 -23q-1 -5 -2 -9.5t-2 -10.5l21 -12
l-23 -108h-10h-67v0z" />
    <glyph glyph-name="B" unicode="&#x201d;" horiz-adv-x="228" 
d="M211 554q-1 -3 -2 -7t-2 -7q-9 -23 -30 -42t-48 -20h-10l11 51q13 4 18.5 11t9.5 23q2 4 3 9t2 11l-19 12l22 108h10h66l-31 -149v0zM277 703h67l-31 -149q-1 -3 -2 -7t-2 -7q-10 -23 -31 -42t-48 -20h-10l11 51q14 4 19.5 11t10.5 23q1 5 2 9.5t2 10.5l-20 12l22 108h10
v0z" />
    <glyph glyph-name="quotedblbase" unicode="&#x201e;" 
d="M148 300h-35q-13 8 -19 20.5t-6 25.5v3.5t1 3.5q0 2 0.5 3.5t0.5 3.5q0 1 0.5 2.5t0.5 3.5q5 16 17 30.5t30 23.5h10h70q14 -7 20 -19.5t6 -26.5q0 -2 -0.5 -4t-0.5 -3q0 -2 -0.5 -3.5t-0.5 -3.5q0 -1 -0.5 -2.5t-0.5 -3.5q-5 -16 -17 -30.5t-31 -23.5h-10h-35v0z" />
    <glyph glyph-name="glyph233" unicode="&#x2020;" 
d="M148 300h-35q-13 8 -19 20.5t-6 25.5v3.5t1 3.5q0 2 0.5 3.5t0.5 3.5q0 1 0.5 2.5t0.5 3.5q5 16 17 30.5t30 23.5h10h70q14 -7 20 -19.5t6 -26.5q0 -2 -0.5 -4t-0.5 -3q0 -2 -0.5 -3.5t-0.5 -3.5q0 -1 -0.5 -2.5t-0.5 -3.5q-5 -16 -17 -30.5t-31 -23.5h-10h-35v0z" />
    <glyph glyph-name="glyph236" unicode="&#x2021;" 
d="M148 300h-35q-13 8 -19 20.5t-6 25.5v3.5t1 3.5q0 2 0.5 3.5t0.5 3.5q0 1 0.5 2.5t0.5 3.5q5 16 17 30.5t30 23.5h10h70q14 -7 20 -19.5t6 -26.5q0 -2 -0.5 -4t-0.5 -3q0 -2 -0.5 -3.5t-0.5 -3.5q0 -1 -0.5 -2.5t-0.5 -3.5q-5 -16 -17 -30.5t-31 -23.5h-10h-35v0z" />
    <glyph glyph-name="glyph257" unicode="&#x2022;" 
d="M148 300h-35q-13 8 -19 20.5t-6 25.5v3.5t1 3.5q0 2 0.5 3.5t0.5 3.5q0 1 0.5 2.5t0.5 3.5q5 16 17 30.5t30 23.5h10h70q14 -7 20 -19.5t6 -26.5q0 -2 -0.5 -4t-0.5 -3q0 -2 -0.5 -3.5t-0.5 -3.5q0 -1 -0.5 -2.5t-0.5 -3.5q-5 -16 -17 -30.5t-31 -23.5h-10h-35v0z" />
    <glyph glyph-name="glyph232" unicode="&#x2026;" 
d="M148 300h-35q-13 8 -19 20.5t-6 25.5v3.5t1 3.5q0 2 0.5 3.5t0.5 3.5q0 1 0.5 2.5t0.5 3.5q5 16 17 30.5t30 23.5h10h70q14 -7 20 -19.5t6 -26.5q0 -2 -0.5 -4t-0.5 -3q0 -2 -0.5 -3.5t-0.5 -3.5q0 -1 -0.5 -2.5t-0.5 -3.5q-5 -16 -17 -30.5t-31 -23.5h-10h-35v0z" />
    <glyph glyph-name="v" unicode="&#x2030;" 
d="M148 300h-35q-13 8 -19 20.5t-6 25.5v3.5t1 3.5q0 2 0.5 3.5t0.5 3.5q0 1 0.5 2.5t0.5 3.5q5 16 17 30.5t30 23.5h10h70q14 -7 20 -19.5t6 -26.5q0 -2 -0.5 -4t-0.5 -3q0 -2 -0.5 -3.5t-0.5 -3.5q0 -1 -0.5 -2.5t-0.5 -3.5q-5 -16 -17 -30.5t-31 -23.5h-10h-35v0z" />
    <glyph glyph-name="glyph243" unicode="&#x2039;" 
d="M148 300h-35q-13 8 -19 20.5t-6 25.5v3.5t1 3.5q0 2 0.5 3.5t0.5 3.5q0 1 0.5 2.5t0.5 3.5q5 16 17 30.5t30 23.5h10h70q14 -7 20 -19.5t6 -26.5q0 -2 -0.5 -4t-0.5 -3q0 -2 -0.5 -3.5t-0.5 -3.5q0 -1 -0.5 -2.5t-0.5 -3.5q-5 -16 -17 -30.5t-31 -23.5h-10h-35v0z" />
    <glyph glyph-name="less" unicode="&#x203a;" 
d="M148 300h-35q-13 8 -19 20.5t-6 25.5v3.5t1 3.5q0 2 0.5 3.5t0.5 3.5q0 1 0.5 2.5t0.5 3.5q5 16 17 30.5t30 23.5h10h70q14 -7 20 -19.5t6 -26.5q0 -2 -0.5 -4t-0.5 -3q0 -2 -0.5 -3.5t-0.5 -3.5q0 -1 -0.5 -2.5t-0.5 -3.5q-5 -16 -17 -30.5t-31 -23.5h-10h-35v0z" />
    <glyph glyph-name="six" unicode="&#x2122;" 
d="M148 300h-35q-13 8 -19 20.5t-6 25.5v3.5t1 3.5q0 2 0.5 3.5t0.5 3.5q0 1 0.5 2.5t0.5 3.5q5 16 17 30.5t30 23.5h10h70q14 -7 20 -19.5t6 -26.5q0 -2 -0.5 -4t-0.5 -3q0 -2 -0.5 -3.5t-0.5 -3.5q0 -1 -0.5 -2.5t-0.5 -3.5q-5 -16 -17 -30.5t-31 -23.5h-10h-35v0z" />
    <glyph glyph-name="periodcentered" unicode="&#x2219;" horiz-adv-x="152" 
d="M178 413q14 -7 20 -18t6 -24v-2.5v-2.5t-0.5 -2.5t-0.5 -2.5t-0.5 -2.5t-0.5 -2.5q-4 -14 -15.5 -26.5t-30.5 -19.5h-10h-35q-13 6 -19.5 17.5t-6.5 24.5v4.5t1 4.5q0 1 0.5 2.5t0.5 2.5q5 14 16.5 27t29.5 20h10h35v0z" />
    <glyph glyph-name="s" 
 />
    <glyph glyph-name="backslash" 
 />
    <glyph glyph-name="nine" 
 />
    <glyph glyph-name="colon" 
 />
    <glyph glyph-name="Y" 
 />
    <glyph glyph-name="X" 
 />
    <glyph glyph-name="asciicircum" 
 />
    <glyph glyph-name="semicolon" 
 />
    <glyph glyph-name="equal" 
 />
    <glyph glyph-name="exclam" 
 />
    <glyph glyph-name="five" 
 />
    <glyph glyph-name="Q" 
 />
    <glyph glyph-name="quotedblright" 
 />
    <glyph glyph-name="hyphen" 
 />
    <glyph glyph-name="space" 
 />
    <glyph glyph-name="E" 
 />
    <glyph glyph-name="M" 
 />
    <glyph glyph-name="plus" 
 />
    <glyph glyph-name="glyph229" 
 />
    <glyph glyph-name="glyph230" 
 />
    <glyph glyph-name="glyph231" 
 />
    <glyph glyph-name="glyph234" 
 />
    <glyph glyph-name="glyph235" 
 />
    <glyph glyph-name="glyph238" 
 />
    <glyph glyph-name="glyph239" 
 />
    <glyph glyph-name="glyph240" 
 />
    <glyph glyph-name="glyph241" 
 />
    <glyph glyph-name="glyph242" 
 />
    <glyph glyph-name="glyph244" 
 />
    <glyph glyph-name="glyph245" 
 />
    <glyph glyph-name="glyph246" 
 />
    <glyph glyph-name="glyph247" 
 />
    <glyph glyph-name="glyph248" 
 />
    <glyph glyph-name="glyph249" 
 />
    <glyph glyph-name="glyph250" 
 />
    <glyph glyph-name="glyph251" 
 />
    <glyph glyph-name="glyph252" 
 />
    <glyph glyph-name="glyph253" 
 />
    <glyph glyph-name="glyph254" 
 />
    <glyph glyph-name="glyph255" 
 />
    <glyph glyph-name="glyph256" 
 />
    <glyph glyph-name="glyph267" 
 />
    <glyph glyph-name="glyph268" 
 />
    <glyph glyph-name="glyph269" 
 />
    <glyph glyph-name="glyph270" 
 />
    <glyph glyph-name="glyph271" 
 />
    <glyph glyph-name="glyph272" 
 />
    <glyph glyph-name="glyph273" 
 />
    <glyph glyph-name="glyph274" 
 />
    <glyph glyph-name="glyph275" 
 />
    <glyph glyph-name="glyph276" 
 />
    <glyph glyph-name="glyph277" 
 />
    <glyph glyph-name="glyph278" 
 />
    <glyph glyph-name="glyph279" 
 />
    <glyph glyph-name="glyph280" 
 />
    <glyph glyph-name="glyph281" 
 />
    <glyph glyph-name="glyph282" 
 />
    <glyph glyph-name="glyph283" 
 />
    <glyph glyph-name="glyph284" 
 />
    <glyph glyph-name="glyph285" 
 />
    <glyph glyph-name="glyph286" 
 />
    <glyph glyph-name="glyph287" 
 />
    <glyph glyph-name="glyph288" 
 />
    <glyph glyph-name="glyph289" 
 />
    <glyph glyph-name="glyph290" 
 />
    <glyph glyph-name="glyph291" 
 />
    <glyph glyph-name="glyph292" 
 />
    <glyph glyph-name="glyph293" 
 />
    <glyph glyph-name="glyph294" 
 />
    <glyph glyph-name="glyph295" 
 />
    <glyph glyph-name="glyph296" 
 />
    <glyph glyph-name="glyph297" 
 />
    <glyph glyph-name="glyph298" 
 />
    <glyph glyph-name="glyph299" 
 />
    <glyph glyph-name="glyph300" 
 />
    <glyph glyph-name="glyph301" 
 />
    <glyph glyph-name="glyph302" 
 />
    <glyph glyph-name="glyph303" 
 />
    <glyph glyph-name="glyph304" 
 />
    <glyph glyph-name="glyph305" 
 />
    <glyph glyph-name="glyph306" 
 />
    <glyph glyph-name="glyph307" 
 />
    <glyph glyph-name="glyph308" 
 />
    <glyph glyph-name="glyph309" 
 />
    <glyph glyph-name="glyph310" 
 />
    <glyph glyph-name="glyph311" 
 />
    <glyph glyph-name="glyph312" 
 />
    <glyph glyph-name="glyph313" 
 />
    <glyph glyph-name="glyph314" 
 />
    <glyph glyph-name="glyph315" 
 />
    <glyph glyph-name="glyph316" 
 />
    <glyph glyph-name="glyph317" 
 />
    <glyph glyph-name="glyph318" 
 />
    <glyph glyph-name="glyph319" 
 />
    <glyph glyph-name="glyph320" 
 />
    <glyph glyph-name="glyph321" 
 />
    <glyph glyph-name="glyph322" 
 />
    <glyph glyph-name="glyph323" 
 />
    <glyph glyph-name="glyph324" 
 />
    <glyph glyph-name="glyph325" 
 />
    <glyph glyph-name="glyph326" 
 />
    <glyph glyph-name="glyph327" 
 />
    <glyph glyph-name="glyph328" 
 />
    <glyph glyph-name="glyph329" 
 />
    <glyph glyph-name="glyph330" 
 />
    <glyph glyph-name="glyph331" 
 />
    <glyph glyph-name="glyph332" 
 />
    <glyph glyph-name="glyph333" 
 />
    <glyph glyph-name="glyph334" 
 />
    <glyph glyph-name="glyph335" 
 />
    <glyph glyph-name="glyph336" 
 />
    <glyph glyph-name="glyph337" 
 />
    <glyph glyph-name="glyph338" 
 />
    <glyph glyph-name="glyph339" 
 />
    <glyph glyph-name="glyph340" 
 />
    <glyph glyph-name="glyph341" 
 />
    <glyph glyph-name="glyph342" 
 />
    <glyph glyph-name="glyph343" 
 />
    <glyph glyph-name="glyph344" 
 />
    <glyph glyph-name="glyph345" 
 />
    <glyph glyph-name="glyph346" 
 />
    <glyph glyph-name="glyph347" 
 />
    <glyph glyph-name="glyph348" 
 />
    <glyph glyph-name="glyph349" 
 />
    <glyph glyph-name="glyph350" 
 />
    <glyph glyph-name="glyph351" 
 />
    <glyph glyph-name="glyph352" 
 />
    <glyph glyph-name="glyph353" 
 />
    <glyph glyph-name="glyph354" 
 />
    <glyph glyph-name="glyph355" 
 />
    <glyph glyph-name="glyph356" 
 />
    <glyph glyph-name="glyph357" 
 />
    <glyph glyph-name="glyph358" 
 />
    <glyph glyph-name="glyph359" 
 />
    <glyph glyph-name="glyph360" 
 />
    <glyph glyph-name="glyph361" 
 />
    <glyph glyph-name="glyph362" 
 />
    <glyph glyph-name="glyph363" 
 />
    <glyph glyph-name="glyph364" 
 />
    <glyph glyph-name="glyph365" 
 />
    <glyph glyph-name="glyph366" 
 />
    <glyph glyph-name="glyph367" 
 />
    <glyph glyph-name="glyph368" 
 />
    <glyph glyph-name="glyph369" 
 />
    <glyph glyph-name="glyph370" 
 />
    <glyph glyph-name="glyph371" 
 />
    <glyph glyph-name="glyph372" 
 />
    <glyph glyph-name="glyph373" 
 />
    <glyph glyph-name="glyph374" 
 />
    <glyph glyph-name="glyph375" 
 />
    <glyph glyph-name="glyph376" 
 />
    <glyph glyph-name="glyph377" 
 />
    <glyph glyph-name="glyph378" 
 />
    <glyph glyph-name="glyph379" 
 />
    <glyph glyph-name="glyph380" 
 />
    <glyph glyph-name="glyph381" 
 />
    <glyph glyph-name="glyph382" 
 />
    <glyph glyph-name="glyph383" 
 />
    <glyph glyph-name="glyph384" 
 />
    <glyph glyph-name="glyph385" 
 />
    <glyph glyph-name="glyph386" 
 />
    <glyph glyph-name="glyph387" 
 />
    <glyph glyph-name="glyph388" 
 />
    <glyph glyph-name="glyph389" 
 />
    <glyph glyph-name="glyph390" 
 />
    <glyph glyph-name="glyph391" 
 />
    <glyph glyph-name="glyph392" 
 />
    <glyph glyph-name="glyph393" 
 />
    <glyph glyph-name="glyph394" 
 />
    <glyph glyph-name="glyph395" 
 />
    <glyph glyph-name="glyph396" 
 />
    <glyph glyph-name="glyph397" 
 />
    <glyph glyph-name="glyph398" 
 />
    <glyph glyph-name="glyph399" 
 />
    <glyph glyph-name="glyph400" 
 />
    <glyph glyph-name="glyph401" 
 />
    <glyph glyph-name="glyph402" 
 />
    <glyph glyph-name="glyph403" 
 />
    <glyph glyph-name="glyph404" 
 />
    <glyph glyph-name="glyph405" 
 />
    <glyph glyph-name="glyph406" 
 />
    <glyph glyph-name="glyph407" 
 />
    <glyph glyph-name="glyph408" 
 />
    <glyph glyph-name="glyph409" 
 />
    <glyph glyph-name="glyph410" 
 />
    <glyph glyph-name="glyph411" 
 />
    <glyph glyph-name="glyph412" 
 />
    <glyph glyph-name="glyph413" 
 />
    <glyph glyph-name="glyph414" 
 />
    <glyph glyph-name="glyph415" 
 />
    <glyph glyph-name="glyph416" 
 />
    <glyph glyph-name="glyph417" 
 />
    <glyph glyph-name="glyph418" 
 />
    <glyph glyph-name="glyph419" 
 />
    <glyph glyph-name="glyph420" 
 />
    <glyph glyph-name="glyph421" 
 />
    <glyph glyph-name="glyph422" 
 />
    <glyph glyph-name="glyph423" 
 />
    <glyph glyph-name="glyph424" 
 />
    <glyph glyph-name="glyph425" 
 />
    <glyph glyph-name="glyph426" 
 />
    <glyph glyph-name="glyph427" 
 />
    <glyph glyph-name="glyph428" 
 />
    <glyph glyph-name="glyph429" 
 />
    <glyph glyph-name="glyph430" 
 />
    <glyph glyph-name="glyph431" 
 />
    <glyph glyph-name="glyph432" 
 />
    <glyph glyph-name="glyph433" 
 />
    <glyph glyph-name="glyph434" 
 />
    <glyph glyph-name="glyph435" 
 />
    <glyph glyph-name="glyph436" 
 />
    <glyph glyph-name="glyph437" 
 />
    <glyph glyph-name="glyph438" 
 />
    <glyph glyph-name="glyph439" 
 />
    <glyph glyph-name="glyph440" 
 />
    <glyph glyph-name="glyph441" 
 />
  </font>
</defs>
</svg>
